# This file uses centimeters as units for non-parametric coordinates.

mtllib pipe_simple_0.mtl
g default
v -0.500000 0.866025 -2.034479
v -0.866025 0.500000 -2.034479
v -1.000000 0.000000 -2.034479
v -0.866025 -0.500000 -2.034479
v -0.500000 -0.866025 -2.034479
v 0.000000 -1.000000 -2.034479
v 0.500000 -0.866025 -2.034479
v 0.866025 -0.500000 -2.034479
v 1.000000 0.000000 -2.034479
v 0.866025 0.500000 -2.034479
v 0.500000 0.866025 -2.034479
v 0.000000 1.000000 -2.034479
v -0.500000 0.866025 2.034479
v -0.866025 0.500000 2.034479
v -1.000000 0.000000 2.034479
v -0.866025 -0.500000 2.034479
v -0.500000 -0.866025 2.034479
v 0.000000 -1.000000 2.034479
v 0.500000 -0.866025 2.034479
v 0.866025 -0.500000 2.034479
v 1.000000 0.000000 2.034479
v 0.866025 0.500000 2.034479
v 0.500000 0.866025 2.034479
v 0.000000 1.000000 2.034479
vt 0.000005 0.416672
vt 0.000004 0.333339
vt 0.655051 0.333330
vt 0.655052 0.416663
vt 0.000003 0.250006
vt 0.655050 0.249998
vt 0.000002 0.166674
vt 0.655049 0.166665
vt 0.000001 0.083341
vt 0.655047 0.083333
vt 0.000000 0.000009
vt 0.655059 0.999991
vt 0.000012 0.916667
vt 0.655058 0.916659
vt 0.000011 0.833335
vt 0.655057 0.833326
vt 0.000010 0.750002
vt 0.655056 0.749994
vt 0.000009 0.666670
vt 0.655055 0.666661
vt 0.000008 0.583337
vt 0.655054 0.583328
vt 0.000007 0.500004
vt 0.655053 0.499996
vt 0.000013 1.000000
vt 0.655046 0.000000
vn -0.500000 0.866025 0.000000
vn -0.866026 0.500000 0.000000
vn -0.866026 0.500000 0.000000
vn -0.500000 0.866025 0.000000
vn -1.000000 0.000000 0.000000
vn -1.000000 0.000000 0.000000
vn -0.866026 -0.500000 0.000000
vn -0.866026 -0.500000 0.000000
vn -0.500000 -0.866025 0.000000
vn -0.500000 -0.866025 0.000000
vn 0.000000 -1.000000 0.000000
vn 0.000000 -1.000000 0.000000
vn 0.500000 -0.866025 0.000000
vn 0.500000 -0.866025 0.000000
vn 0.866026 -0.500000 0.000000
vn 0.866026 -0.500000 0.000000
vn 1.000000 0.000000 0.000000
vn 1.000000 0.000000 0.000000
vn 0.866026 0.500000 0.000000
vn 0.866026 0.500000 0.000000
vn 0.500000 0.866025 0.000000
vn 0.500000 0.866025 0.000000
vn 0.000000 1.000000 0.000000
vn 0.000000 1.000000 0.000000
s 1
g pipe
usemtl initialShadingGroup
f 1/1/1 2/2/2 14/3/3 13/4/4
f 2/2/2 3/5/5 15/6/6 14/3/3
f 3/5/5 4/7/7 16/8/8 15/6/6
f 4/7/7 5/9/9 17/10/10 16/8/8
f 5/9/9 6/11/11 18/26/12 17/10/10
f 6/25/11 7/13/13 19/14/14 18/12/12
f 7/13/13 8/15/15 20/16/16 19/14/14
f 8/15/15 9/17/17 21/18/18 20/16/16
f 9/17/17 10/19/19 22/20/20 21/18/18
f 10/19/19 11/21/21 23/22/22 22/20/20
f 11/21/21 12/23/23 24/24/24 23/22/22
f 12/23/23 1/1/1 13/4/4 24/24/24
