# This file uses centimeters as units for non-parametric coordinates.

mtllib crystals.mtl
g default
v 0.039523 0.000000 0.032062
v 0.084749 0.000000 0.026724
v 0.050892 0.000000 0.004615
v 0.087582 0.000000 0.006134
v 0.081877 0.064041 0.033940
v 0.046554 0.055621 0.014212
v 0.046058 0.075696 0.000150
v 0.074317 0.089863 0.004835
vt 0.812906 0.579778
vt 0.863062 0.579587
vt 0.837770 0.769212
vt 0.803022 0.700780
vt 0.937171 0.600378
vt 0.998759 0.610480
vt 0.939695 0.719464
vt 0.904055 0.756933
vt 0.715398 0.584099
vt 0.731461 0.713820
vt 0.757839 0.767333
vn -0.184539 0.093365 0.978381
vn -0.184538 0.093365 0.978381
vn -0.184539 0.093365 0.978381
vn -0.184539 0.093365 0.978381
vn 0.100191 -0.023680 -0.994686
vn 0.100191 -0.023680 -0.994686
vn 0.100191 -0.023680 -0.994686
vn 0.100191 -0.023680 -0.994686
vn 0.993609 0.105701 -0.039602
vn 0.993609 0.105701 -0.039602
vn 0.993609 0.105701 -0.039602
vn 0.993609 0.105701 -0.039602
vn -0.963411 -0.029157 -0.266438
vn -0.963411 -0.029157 -0.266438
vn -0.963411 -0.029157 -0.266438
vn -0.963411 -0.029157 -0.266438
vn -0.462881 0.562828 0.684811
vn -0.462881 0.562828 0.684811
vn -0.462881 0.562828 0.684811
vn -0.462881 0.562828 0.684811
s off
g crystalSmall crystals
usemtl lambert1SG
f 1/9/1 2/1/2 5/4/3 6/10/4
f 7/8/5 8/3/6 4/2/7 3/5/8
f 2/1/9 4/2/10 8/3/11 5/4/12
f 3/5/13 1/6/14 6/7/15 7/8/16
f 6/10/17 5/4/18 8/3/19 7/11/20
g default
v 0.022003 0.127568 -0.004769
v 0.095344 0.113418 -0.019392
v 0.032068 0.091993 -0.087297
v 0.092536 0.127568 -0.097082
v 0.070906 0.214850 -0.046328
v 0.095494 -0.001674 -0.012659
v 0.035400 -0.005611 -0.006129
v 0.037805 -0.003456 -0.067080
v 0.095780 0.005611 -0.086645
vt 0.283463 0.464316
vt 0.298849 0.221298
vt 0.424596 0.280236
vt 0.291976 0.000000
vt 0.473604 0.041141
vt 0.172323 0.262555
vt 0.000000 0.276569
vt 0.010195 0.047248
vt 0.141701 0.003636
vt 0.563272 0.284159
vt 0.607817 0.064472
vn -0.225251 -0.047930 -0.973121
vn -0.369521 0.396981 -0.840155
vn -0.284702 0.114379 -0.951768
vn 0.185613 0.113414 0.976056
vn 0.180463 0.097147 0.978772
vn 0.242247 0.303109 0.921651
vn 0.971672 0.236203 0.007899
vn 0.998077 0.061184 -0.009952
vn 0.996860 0.078755 -0.008183
vn -0.981050 0.112315 -0.157880
vn -0.889253 0.370546 -0.268190
vn -0.993134 0.018487 -0.115509
vn 0.158744 0.030024 0.986863
vn 0.158744 0.030024 0.986863
vn -0.993895 -0.088601 -0.065747
vn -0.993895 -0.088601 -0.065747
vn -0.186265 -0.144718 -0.971783
vn -0.186265 -0.144718 -0.971783
vn 0.999803 0.013249 -0.014753
vn 0.999803 0.013249 -0.014753
s 1
g crystals crystalThick
usemtl lambert1SG
f 11/21/21 13/12/22 12/14/23
s 2
f 9/17/24 10/13/25 13/12/26
s 3
f 13/12/27 10/13/28 12/14/29
s 4
f 9/17/30 13/12/31 11/18/32
s 2
f 15/20/33 14/15/34 10/13/25 9/17/24
s 4
f 16/19/35 15/20/36 9/17/30 11/18/32
s 1
f 11/21/21 12/14/23 17/16/37 16/22/38
s 3
f 14/15/39 17/16/40 12/14/29 10/13/28
g default
v -0.021958 -0.005227 0.017481
v 0.000912 -0.005227 0.044944
v -0.008451 0.186840 0.060069
v -0.002826 0.177695 0.080432
v 0.016841 0.183867 0.045350
v 0.036678 0.164490 0.078163
v 0.023710 -0.005227 0.006954
v 0.031965 -0.005227 0.041618
v 0.022189 0.182015 0.082057
v -0.003335 0.065508 0.060694
v -0.013006 0.101855 0.032625
v 0.024466 0.102793 0.027037
v 0.027274 0.081096 0.065470
v 0.032557 0.146269 0.073290
v 0.026971 0.148900 0.036499
v -0.014866 0.151688 0.044618
v -0.006327 0.142292 0.069829
vt 0.663017 0.405385
vt 0.425524 0.428964
vt 0.425436 0.577719
vt 0.660106 0.634532
vt 0.574940 0.791602
vt 0.503181 0.812013
vt 0.510409 0.769504
vt 0.579804 0.631150
vt 0.490403 0.605773
vt 0.491964 0.423198
vt 0.565861 0.406265
vt 0.595632 0.837891
vt 0.452186 0.803474
vt 0.373482 0.759913
vt 0.424986 0.735598
vt 0.577005 0.722336
vt 0.504006 0.733013
vt 0.655269 0.757016
vt 0.355208 0.648327
vt 0.350864 0.420892
vt 0.418719 0.835858
vn -0.877727 -0.059384 0.475468
vn -0.877727 -0.059384 0.475468
vn -0.896739 -0.063442 0.437988
vn -0.936830 -0.072980 0.342088
vn 0.759749 0.645506 -0.078127
vn 0.759749 0.645506 -0.078127
vn 0.759749 0.645506 -0.078127
vn 0.991358 0.003735 -0.131131
vn 0.990891 0.023085 -0.132671
vn 0.989589 0.050505 -0.134770
vn 0.989589 0.050505 -0.134770
vn 0.038443 -0.242259 0.969450
vn 0.038443 -0.242259 0.969450
vn -0.041308 -0.161554 0.985999
vn -0.005291 -0.198333 0.980120
vn -0.189426 0.167008 -0.967588
vn -0.189426 0.167008 -0.967588
vn -0.181219 0.181626 -0.966526
vn -0.180888 0.182211 -0.966477
vn -0.180422 0.877671 0.444006
vn -0.180422 0.877671 0.444006
vn -0.180422 0.877671 0.444006
vn -0.022614 -0.234660 0.971814
vn -0.044582 -0.267967 0.962396
vn -0.044781 -0.268267 0.962303
vn 0.134133 0.990496 0.030434
vn 0.134133 0.990496 0.030434
vn 0.134133 0.990496 0.030434
vn -0.960278 -0.046827 0.275089
vn -0.960575 -0.050705 0.273358
vn -0.952228 0.021338 0.304643
vn -0.952228 0.021338 0.304643
vn -0.201592 0.244301 -0.948514
vn -0.212679 0.251939 -0.944084
vn -0.283975 0.300532 -0.910516
vn -0.283975 0.300532 -0.910516
vn 0.940910 0.180276 -0.286687
vn 0.940910 0.180276 -0.286687
vn 0.981913 0.033842 -0.186285
vn 0.984559 0.016791 -0.174244
vn -0.074375 -0.158752 0.984513
vn -0.070124 -0.176271 0.981841
s 1
g crystals crystalCrooked
usemtl lambert1SG
f 18/42/41 19/24/42 27/25/43 28/41/44
s off
f 22/27/45 26/28/46 23/29/47
s 2
f 29/30/48 30/31/49 25/32/50 24/33/51
s 3
f 19/24/52 25/32/53 30/31/54 27/25/55
s 4
f 24/33/56 18/23/57 28/26/58 29/30/59
s off
f 20/43/60 21/35/61 26/28/62
s 3
f 26/28/63 21/35/64 23/29/65
s off
f 20/34/66 26/28/67 22/27/68
s 1
f 33/36/69 34/37/70 21/35/71 20/43/72
s 4
f 32/38/73 33/40/74 20/34/75 22/27/76
s 2
f 22/27/77 23/29/78 31/39/79 32/38/80
s 3
f 34/37/81 31/39/82 23/29/65 21/35/64
s 2
f 32/38/80 31/39/79 30/31/49 29/30/48
s 4
f 29/30/59 28/26/58 33/40/74 32/38/73
s 1
f 28/41/44 27/25/43 34/37/70 33/36/69
s 3
f 27/25/55 30/31/54 31/39/82 34/37/81
g default
v -0.042530 0.000000 -0.004449
v 0.019499 0.000000 -0.021569
v -0.032109 0.210846 -0.009455
v 0.009457 0.202061 -0.018535
v -0.032109 0.210846 -0.037118
v 0.005436 0.210846 -0.050228
v -0.030591 0.000000 -0.050526
v 0.007985 0.000000 -0.061063
v -0.007994 0.286678 -0.035259
v 0.007273 0.102795 -0.014354
v -0.030040 0.100350 -0.010299
v -0.028547 0.101688 -0.048144
v 0.007450 0.107318 -0.060292
vt 0.733303 0.000001
vt 0.818981 0.000430
vt 0.817031 0.216170
vt 0.722048 0.211886
vt 0.812005 0.420859
vt 0.748312 0.410348
vt 0.810030 0.579883
vt 0.902426 0.003164
vt 1.000000 0.009228
vt 0.973113 0.216201
vt 0.895209 0.209871
vt 0.941987 0.449098
vt 0.889415 0.431933
vt 0.601481 0.011956
vt 0.644026 0.215769
vt 0.673680 0.453501
vn 0.208627 -0.006840 0.977971
vn 0.208627 -0.006840 0.977971
vn 0.189116 0.003328 0.981949
vn 0.190863 0.002420 0.981614
vn -0.328925 0.094692 -0.939597
vn -0.327004 0.126941 -0.936459
vn -0.328938 0.094459 -0.939616
vn -0.309840 0.048433 -0.949554
vn -0.312676 0.053608 -0.948346
vn -0.292130 0.016536 -0.956236
vn -0.292130 0.016536 -0.956236
vn 0.989659 0.064965 -0.127888
vn 0.989659 0.064965 -0.127888
vn 0.995337 0.034062 -0.090250
vn 0.994930 0.036801 -0.093591
vn -0.985303 0.068192 -0.156615
vn -0.985303 0.068192 -0.156615
vn -0.994726 0.027867 -0.098712
vn -0.994890 0.026895 -0.097313
vn 0.194433 0.084975 0.977228
vn 0.187059 0.067114 0.980054
vn 0.255000 0.237829 0.937237
vn 0.979557 0.187744 -0.072255
vn 0.998120 0.030542 -0.053139
vn 0.997010 0.053271 -0.055980
vn -0.998999 0.040564 -0.018854
vn -0.952976 0.303045 0.000000
vn -0.998666 0.048274 -0.018322
s 1
g crystals crystalLong
usemtl lambert1SG
f 35/57/83 36/44/84 44/47/85 45/58/86
s 2
f 39/56/87 43/50/88 40/48/89
f 46/54/90 47/46/91 42/45/92 41/51/93
s 3
f 36/44/94 42/45/95 47/46/96 44/47/97
s 4
f 41/51/98 35/52/99 45/53/100 46/54/101
s 1
f 37/59/102 38/49/103 43/50/104
s 3
f 43/50/105 38/49/106 40/48/107
s 4
f 37/55/108 43/50/109 39/56/110
s 1
f 45/58/86 44/47/85 38/49/103 37/59/102
s 4
f 46/54/101 45/53/100 37/55/108 39/56/110
s 2
f 39/56/87 40/48/89 47/46/91 46/54/90
s 3
f 44/47/97 47/46/96 40/48/107 38/49/106
g default
v -0.054727 0.000000 0.005762
v -0.086220 0.000000 0.038657
v -0.046032 0.000000 0.034170
v -0.075304 0.000000 0.056343
v -0.088595 0.064041 0.031263
v -0.064129 0.080312 0.005411
v -0.039462 0.121113 0.034539
v -0.064244 0.089863 0.048905
vt 0.049001 0.632593
vt 0.096320 0.568147
vt 0.144623 0.619799
vt 0.176336 0.701917
vt 0.000000 0.454969
vt 0.103796 0.441968
vt 0.152865 0.438964
vt 0.232498 0.455312
vt 0.293110 0.466502
vt 0.269787 0.633238
vn -0.707465 -0.095293 -0.700294
vn -0.707465 -0.095293 -0.700294
vn -0.707465 -0.095293 -0.700294
vn -0.707465 -0.095293 -0.700294
vn 0.567787 -0.019873 0.822935
vn 0.567787 -0.019873 0.822935
vn 0.567787 -0.019873 0.822935
vn 0.567787 -0.019873 0.822935
vn -0.741324 0.105701 0.662771
vn -0.741324 0.105701 0.662771
vn -0.741324 0.105701 0.662771
vn -0.741324 0.105701 0.662771
vn 0.861261 0.012159 -0.508017
vn 0.861261 0.012159 -0.508017
vn 0.861261 0.012159 -0.508017
vn 0.861261 0.012159 -0.508017
vn -0.745741 0.650314 -0.144782
vn -0.745741 0.650314 -0.144782
vn -0.745741 0.650314 -0.144782
vn -0.745741 0.650314 -0.144782
s off
g crystals crystalStandard
usemtl lambert1SG
f 48/64/111 49/65/112 52/61/113 53/60/114
f 54/63/115 55/62/116 51/66/117 50/67/118
f 49/65/119 51/66/120 55/62/121 52/61/122
f 50/67/123 48/68/124 53/69/125 54/63/126
f 53/60/127 52/61/128 55/62/129 54/63/130
