# This file uses centimeters as units for non-parametric coordinates.

mtllib poster.mtl
g default
v -0.034797 2.573238 -0.064087
v 0.034797 2.573238 -0.064087
v -0.034797 2.642832 -0.064087
v 0.034797 2.642832 -0.064087
v -0.034797 2.642832 -0.108994
v 0.034797 2.642832 -0.108994
v -0.034797 2.573238 -0.108994
v 0.034797 2.573238 -0.108994
v -0.066961 2.674996 -0.064087
v 0.066961 2.674996 -0.064087
v 0.056301 2.664336 -0.096419
v -0.056301 2.664336 -0.096419
v -0.056301 2.551734 -0.096419
v 0.056301 2.551734 -0.096419
v 0.066961 2.541074 -0.064087
v -0.066961 2.541074 -0.064087
v -0.034797 2.608035 -0.064087
v 0.034797 2.608035 -0.064087
v 0.090398 2.608035 -0.064087
v 0.076007 2.608035 -0.096419
v 0.034797 2.608035 -0.108994
v -0.034797 2.608035 -0.108994
v -0.076007 2.608035 -0.096419
v -0.090398 2.608035 -0.064087
v 0.000000 2.573238 -0.064087
v 0.000000 2.518953 -0.064087
v 0.000000 2.533134 -0.096419
v 0.000000 2.573238 -0.108994
v 0.000000 2.608035 -0.108994
v 0.000000 2.642832 -0.108994
v 0.000000 2.682936 -0.096419
v 0.000000 2.697117 -0.064087
v 0.000000 2.642832 -0.064087
v 0.000000 2.608035 -0.064087
v -0.899309 0.204411 -0.098299
v -0.299770 0.204411 -0.098299
v 0.299770 0.204411 -0.098299
v 0.899309 0.204411 -0.098299
v -0.899309 0.835687 -0.021414
v 0.899309 0.835687 -0.021414
v -0.899309 1.472876 0.016406
v 0.899309 1.472876 0.016406
v -0.899309 2.111094 0.011579
v 0.899309 2.111094 0.011579
v -0.899309 2.745598 -0.031138
v -0.299770 2.745598 -0.031138
v 0.299770 2.745598 -0.031138
v 0.530828 2.291125 -0.287547
v -0.899309 2.743158 -0.067378
v -0.299770 2.743158 -0.067378
v 0.299770 2.743158 -0.067378
v 0.506669 2.270123 -0.270385
v -0.899309 2.108654 -0.024660
v -0.299770 2.108654 -0.024660
v 0.299770 2.108654 -0.024660
v 0.899309 2.108654 -0.024660
v -0.899309 1.474847 -0.019861
v -0.299770 1.474847 -0.019861
v 0.299770 1.474847 -0.019861
v 0.899309 1.474847 -0.019861
v -0.899309 0.840078 -0.057469
v -0.299770 0.840078 -0.057469
v 0.299770 0.840078 -0.057469
v 0.899309 0.840078 -0.057469
v -0.899309 0.208803 -0.134354
v -0.299770 0.208803 -0.134354
v 0.299770 0.208803 -0.134354
v 0.899309 0.208803 -0.134354
v 0.887600 2.174423 -0.033168
v 0.887330 2.264073 -0.051012
v 0.468774 2.708212 -0.096704
v 0.454038 2.740119 -0.067896
v 0.518223 2.741678 -0.107601
v 0.481523 2.763616 -0.028278
v 0.915085 2.197921 0.006450
v 0.936779 2.297538 -0.061909
vt 0.080293 0.940915
vt 0.089296 0.923715
vt 0.069555 0.929201
vt 0.060096 0.948679
vt 0.051331 0.973008
vt 0.052248 0.981922
vt 0.020084 0.976562
vt 0.028676 0.967503
vt 0.050023 0.944946
vt 0.050483 0.957922
vt 0.037577 0.958180
vt 0.037863 0.944585
vt 0.049798 0.906601
vt 0.049738 0.916282
vt 0.030595 0.921664
vt 0.024700 0.913000
vt 0.014605 0.943513
vt 0.023046 0.944057
vt 0.076352 0.945824
vt 0.083960 0.946257
vt 0.080380 0.973582
vt 0.072168 0.966431
vt 0.049794 0.931908
vt 0.038005 0.931090
vt 0.058284 0.911947
vt 0.078181 0.910438
vt 0.087890 0.931951
vt 0.086601 0.946851
vt 0.063119 0.958075
vt 0.062014 0.945336
vt 0.061307 0.932632
vt 0.067963 0.925074
vt 0.072374 0.919335
vt 0.083709 0.918844
vt 0.007964 0.771955
vt 0.799057 0.603631
vt 0.915774 0.705656
vt 0.902077 0.703677
vt 0.801826 0.531099
vt 0.819058 0.541670
vt 0.176360 0.992293
vt 0.879535 0.892672
vt 0.881487 0.906372
vt 0.896420 0.812106
vt 0.735825 0.992778
vt 0.748824 0.998008
vt 0.937799 0.716578
vt 0.977371 0.742448
vt 0.972118 0.467657
vt 0.805830 0.004117
vt 0.810755 0.242444
vt 0.796560 0.242743
vt 0.791393 0.004432
vt 0.815670 0.472782
vt 0.801772 0.473035
vt 0.702886 0.994134
vt 0.469257 0.993859
vt 0.469819 0.746296
vt 0.703381 0.746603
vt 0.236297 0.993505
vt 0.236527 0.746170
vt 0.470138 0.499368
vt 0.703979 0.499487
vt 0.236513 0.499454
vt 0.003391 0.746171
vt 0.003098 0.499690
vt 0.470100 0.251328
vt 0.704110 0.251164
vt 0.236237 0.251617
vt 0.002556 0.252071
vt 0.469764 0.003130
vt 0.703791 0.002826
vt 0.235834 0.003526
vt 0.001951 0.004084
vt 0.786969 0.004225
vt 0.778375 0.238766
vt 0.764200 0.238251
vt 0.772760 0.003706
vt 0.769938 0.472215
vt 0.755826 0.471703
vt 0.761401 0.704613
vt 0.747322 0.704097
vt 0.753734 0.003418
vt 0.767884 0.005396
vt 0.737685 0.255053
vt 0.723521 0.253338
vt 0.723033 0.502628
vt 0.708999 0.501873
vt 0.724953 0.745907
vt 0.711043 0.746850
vt 0.860373 0.003515
vt 0.874473 0.001992
vt 0.904920 0.239343
vt 0.890993 0.241117
vt 0.921207 0.491887
vt 0.906835 0.492731
vt 0.841327 0.003680
vt 0.855101 0.002881
vt 0.854341 0.245311
vt 0.840176 0.244421
vt 0.838537 0.500299
vt 0.823971 0.499380
vt 0.903905 0.884642
vt 0.934458 0.867927
vt 0.955184 0.878186
vt 0.914869 0.901890
vt 0.737787 0.859974
vt 0.707083 0.875642
vt 0.820971 0.631836
vt 0.827903 0.647508
vt 0.851882 0.852076
vt 0.857220 0.835378
vt 0.874660 0.824241
vt 0.874249 0.859002
vt 0.940025 0.480873
vn -0.000000 0.000000 1.000000
vn 0.000000 0.000000 1.000000
vn 0.000000 0.000000 1.000000
vn 0.000000 0.000000 1.000000
vn 0.000000 0.771479 -0.636254
vn 0.000000 0.859331 0.511420
vn 0.614092 0.621657 0.486244
vn 0.535355 0.543066 -0.646896
vn 0.000000 0.000000 -1.000000
vn 0.000000 0.206496 -0.978447
vn 0.172741 0.174484 -0.969390
vn 0.204251 -0.000000 -0.978919
vn -0.000000 -0.859332 0.511419
vn -0.000000 -0.771480 -0.636254
vn 0.535356 -0.543066 -0.646896
vn 0.614093 -0.621657 0.486243
vn 0.857842 0.000000 0.513914
vn 0.768133 0.000000 -0.640291
vn -0.768133 0.000000 -0.640291
vn -0.857843 0.000000 0.513913
vn -0.614093 0.621657 0.486244
vn -0.535355 0.543065 -0.646896
vn -0.000000 -0.206495 -0.978448
vn 0.172741 -0.174483 -0.969390
vn 0.000000 0.000000 1.000000
vn 0.000000 0.000000 1.000000
vn 0.000000 0.000000 1.000000
vn -0.000000 0.000000 1.000000
vn -0.172741 0.174483 -0.969390
vn -0.204251 0.000000 -0.978919
vn -0.172741 -0.174483 -0.969390
vn -0.535356 -0.543067 -0.646895
vn -0.614093 -0.621657 0.486243
vn -0.000000 0.000000 1.000000
vn 0.000000 0.997741 -0.067175
vn 0.000000 0.997741 -0.067175
vn 0.000000 0.997741 -0.067175
vn 0.000000 0.997741 -0.067175
vn -0.009602 0.992029 -0.125642
vn -0.009520 0.992092 -0.125148
vn 0.000000 -0.067172 -0.997741
vn 0.000000 -0.067172 -0.997741
vn 0.000000 -0.037438 -0.999299
vn 0.000000 -0.037438 -0.999299
vn -0.000527 -0.067172 -0.997741
vn -0.000788 -0.032095 -0.999485
vn 0.000000 0.025854 -0.999666
vn 0.000000 0.025854 -0.999666
vn 0.000000 0.025854 -0.999666
vn 0.000000 -0.012939 -0.999916
vn 0.000000 0.025854 -0.999666
vn 0.000000 0.090066 -0.995936
vn 0.000000 0.090066 -0.995936
vn 0.000000 0.090066 -0.995936
vn 0.000000 0.090066 -0.995936
vn 0.000000 0.120900 -0.992665
vn 0.000000 0.120900 -0.992665
vn 0.000000 0.120900 -0.992665
vn 0.000000 0.120900 -0.992665
vn 0.000000 -0.992665 -0.120901
vn 0.000000 -0.992665 -0.120901
vn 0.000000 -0.992665 -0.120901
vn 0.000000 -0.992665 -0.120901
vn 0.000000 -0.992665 -0.120901
vn 0.000000 -0.992665 -0.120901
vn 0.000000 -0.992665 -0.120901
vn 0.000000 -0.992665 -0.120901
vn 1.000000 0.000000 0.000000
vn 1.000000 0.000000 0.000000
vn 1.000000 -0.000000 0.000000
vn 1.000000 -0.000000 0.000000
vn 1.000000 0.000000 0.000000
vn 1.000000 0.000000 0.000000
vn 0.999208 -0.006558 -0.039240
vn 0.999145 -0.006813 -0.040768
vn -1.000000 -0.000000 0.000000
vn -1.000000 -0.000000 0.000000
vn -1.000000 -0.000000 0.000000
vn -1.000000 -0.000000 0.000000
vn -1.000000 0.000000 0.000000
vn -1.000000 0.000000 0.000000
vn -1.000000 0.000000 0.000000
vn -1.000000 0.000000 0.000000
vn -1.000000 0.000000 0.000000
vn -1.000000 0.000000 0.000000
vn 0.794610 -0.239509 -0.557880
vn 0.381125 -0.686322 -0.619440
vn 0.378165 -0.689850 -0.617332
vn 0.716564 -0.301522 -0.628983
vn -0.712589 -0.598367 0.366298
vn -0.036215 -0.101506 -0.994176
vn -0.039638 -0.095612 -0.994629
vn -0.721155 -0.607922 0.332215
vn -0.510638 0.345799 -0.787192
vn -0.150832 0.904368 -0.399209
vn -0.147893 0.905858 -0.396925
vn -0.507330 0.362103 -0.781984
vn 0.756270 0.645821 -0.104743
vn 0.619949 0.566370 0.543037
vn 0.619949 0.566370 0.543037
vn 0.756419 0.646125 -0.101750
vn -0.520663 0.289963 -0.803014
vn -0.520663 0.289963 -0.803014
vn -0.470102 -0.360124 0.805801
vn 0.329149 -0.744219 -0.581205
vn 0.329149 -0.744219 -0.581205
vn 0.452459 0.341651 -0.823745
s 1
g poster
usemtl initialShadingGroup
f 33/1/1 34/2/2 18/3/3 4/4/4
f 31/5/5 32/6/6 10/7/7 11/8/8
f 29/9/9 30/10/10 6/11/11 21/12/12
f 26/13/13 27/14/14 14/15/15 15/16/16
f 19/17/17 20/18/18 11/8/8 10/7/7
f 23/19/19 24/20/20 9/21/21 12/22/22
f 32/6/6 33/1/1 4/4/4 10/7/7
f 6/11/11 30/10/10 31/5/5 11/8/8
f 27/14/14 28/23/23 8/24/24 14/15/15
f 2/25/25 25/26/26 26/13/13 15/16/16
f 20/18/18 21/12/12 6/11/11 11/8/8
f 4/4/4 18/3/3 19/17/17 10/7/7
f 24/20/20 17/27/27 3/28/28 9/21/21
f 5/29/29 22/30/30 23/19/19 12/22/22
f 34/2/2 25/26/26 2/25/25 18/3/3
f 19/17/17 18/3/3 2/25/25 15/16/16
f 15/16/16 14/15/15 20/18/18 19/17/17
f 8/24/24 21/12/12 20/18/18 14/15/15
f 28/23/23 29/9/9 21/12/12 8/24/24
f 23/19/19 22/30/30 7/31/31 13/32/32
f 13/32/32 16/33/33 24/20/20 23/19/19
f 1/34/34 17/27/27 24/20/20 16/33/33
f 26/13/13 25/26/26 1/34/34 16/33/33
f 13/32/32 27/14/14 26/13/13 16/33/33
f 7/31/31 28/23/23 27/14/14 13/32/32
f 22/30/30 29/9/9 28/23/23 7/31/31
f 5/29/29 30/10/10 29/9/9 22/30/30
f 31/5/5 30/10/10 5/29/29 12/22/22
f 9/21/21 32/6/6 31/5/5 12/22/22
f 3/28/28 33/1/1 32/6/6 9/21/21
f 17/27/27 34/2/2 33/1/1 3/28/28
f 1/34/34 25/26/26 34/2/2 17/27/27
s 6
f 45/50/35 46/51/36 50/52/37 49/53/38
f 46/51/36 47/54/39 51/55/40 50/52/37
s 7
f 49/56/41 50/57/42 54/58/43 53/59/44
f 50/57/42 51/60/45 55/61/46 54/58/43
f 53/59/44 54/58/43 58/62/47 57/63/48
f 54/58/43 55/61/46 59/64/49 58/62/47
f 55/61/46 56/65/50 60/66/51 59/64/49
f 57/63/48 58/62/47 62/67/52 61/68/53
f 58/62/47 59/64/49 63/69/54 62/67/52
f 59/64/49 60/66/51 64/70/55 63/69/54
f 61/68/53 62/67/52 66/71/56 65/72/57
f 62/67/52 63/69/54 67/73/58 66/71/56
f 63/69/54 64/70/55 68/74/59 67/73/58
s 8
f 65/75/60 66/76/61 36/77/62 35/78/63
f 66/76/61 67/79/64 37/80/65 36/77/62
f 67/79/64 68/81/66 38/82/67 37/80/65
s 9
f 38/83/68 68/84/69 64/85/70 40/86/71
f 40/86/71 64/85/70 60/87/72 42/88/73
f 42/88/73 60/87/72 56/89/74 44/90/75
s 10
f 65/91/76 35/92/77 39/93/78 61/94/79
f 61/94/79 39/93/78 41/95/80 57/96/81
f 57/97/81 41/98/80 43/99/82 53/100/83
f 53/100/83 43/99/82 45/101/84 49/102/85
s 9
f 69/103/86 70/104/87 76/105/88 75/106/89
s 7
f 70/107/90 69/108/91 72/109/92 71/110/93
s 6
f 71/111/94 72/112/95 74/113/96 73/114/97
s 13
f 73/115/98 74/49/99 75/48/100 76/47/101
s 6
f 71/111/94 73/114/97 48/46/102 52/45/103
s 7
f 70/107/90 71/110/93 52/44/104
s 9
f 44/43/75 56/42/74 69/103/86 75/106/89
s 7
f 51/60/45 72/41/92 55/61/46
s 6
f 47/54/39 74/40/96 72/39/95 51/55/40
s 9
f 76/105/88 70/104/87 52/38/105 48/37/106
s 13
f 73/115/98 76/47/101 48/36/107
s 7
f 55/61/46 69/35/91 56/65/50
f 55/61/46 72/41/92 69/35/91
