# This file uses centimeters as units for non-parametric coordinates.

mtllib TVsquareBroken.mtl
g default
v 0.122773 0.246397 0.109901
v 0.122773 0.026593 0.109901
v 0.122773 0.026593 -0.109902
v 0.122773 0.246397 0.022173
v 0.122773 0.205773 0.008486
v 0.122773 0.219361 0.060426
v 0.122773 0.142627 0.063279
v 0.122773 0.154883 0.096895
v 0.122773 0.103267 0.030908
v 0.122773 0.058789 0.063793
v 0.122773 0.175210 -0.109902
v 0.122773 0.096373 -0.109902
v 0.122773 0.087389 -0.067003
v 0.122773 0.140827 -0.087831
v 0.122773 0.096373 -0.109902
vt 0.892843 0.029864
vt 0.764694 0.000003
vt 0.763930 0.221826
vt 0.846597 0.228459
vt 0.872956 0.197431
vt 0.813370 0.195699
vt 0.811515 0.117507
vt 0.777381 0.129624
vt 0.844447 0.078062
vt 0.811372 0.032814
vt 0.911114 0.079641
vt 0.910970 0.000000
vt 0.823851 0.000026
vt 0.888755 0.044948
vt 0.823846 0.044305
vn 1.000000 0.000001 -0.000004
vn 1.000000 0.000001 -0.000004
vn 1.000000 0.000001 -0.000004
vn 1.000000 0.000001 -0.000004
vn 1.000000 -0.000000 0.000009
vn 1.000000 -0.000000 0.000009
vn 1.000000 -0.000000 0.000009
vn 1.000000 0.000000 0.000018
vn 1.000000 0.000000 0.000018
vn 1.000000 0.000000 0.000018
vn 1.000000 -0.000002 -0.000016
vn 1.000000 -0.000002 -0.000016
vn 1.000000 -0.000002 -0.000016
vn 1.000000 -0.000002 -0.000016
vn 1.000000 0.000000 0.000000
vn 1.000000 0.000000 0.000000
vn 1.000000 0.000000 0.000000
vn 1.000000 -0.000013 0.000001
vn 1.000000 -0.000013 0.000001
vn 1.000000 -0.000013 0.000001
vn 1.000000 -0.000013 0.000001
s off
g TVscreen TVsquareBroken
usemtl lambert1SG
f 2/2/1 10/10/2 9/9/3 8/8/4
f 15/15/5 13/13/6 3/1/7
f 11/11/8 14/14/9 12/12/10
f 2/2/11 8/8/12 6/6/13 1/3/14
f 6/6/15 8/8/16 7/7/17
f 1/3/18 6/6/19 5/5/20 4/4/21
g default
v -0.130768 0.000000 0.098092
v -0.130810 0.005719 0.103848
v -0.136486 0.005719 0.097436
v 0.136504 0.005719 0.130776
v 0.130449 0.006100 0.135755
v 0.130785 0.000000 0.130035
v -0.131126 0.210741 0.103809
v -0.130961 0.216295 0.098141
v -0.136486 0.209723 0.097754
v 0.136504 0.266828 0.130332
v 0.130282 0.271671 0.130103
v 0.130580 0.265635 0.135771
v -0.131395 0.216203 -0.098536
v -0.130880 0.210540 -0.103841
v -0.136486 0.209919 -0.097952
v 0.136504 0.266778 -0.130284
v 0.130580 0.265635 -0.135772
v 0.130282 0.271671 -0.130104
v -0.131126 0.005401 -0.103811
v -0.130768 0.000000 -0.098093
v -0.136486 0.005401 -0.097755
v 0.136504 0.006100 -0.130396
v 0.130785 0.000000 -0.130036
v 0.130449 0.006100 -0.135756
v -0.136486 0.015959 0.097754
v -0.131126 0.016159 0.103809
v -0.131126 0.024252 0.103809
v -0.136486 0.024046 0.097754
v 0.136504 0.034376 0.130394
v 0.130453 0.034147 0.135755
v 0.130444 0.026053 0.135754
v 0.136504 0.026289 0.130394
v -0.136486 0.209919 0.084275
v -0.131391 0.216204 0.084779
v -0.131399 0.216202 0.076656
v -0.136486 0.209919 0.076187
v 0.136504 0.266574 0.102123
v 0.130203 0.271655 0.101491
v 0.130235 0.271661 0.109618
v 0.136504 0.266559 0.110211
v -0.131135 0.191957 -0.103809
v -0.136486 0.191076 -0.097753
v -0.136486 0.199162 -0.097759
v -0.131116 0.200167 -0.103812
v 0.136504 0.238620 -0.130404
v 0.130423 0.237479 -0.135753
v 0.130470 0.245697 -0.135759
v 0.136504 0.246710 -0.130383
v -0.136486 0.005715 -0.084274
v -0.130758 0.000000 -0.084845
v -0.130776 0.000000 -0.076719
v -0.136486 0.005723 -0.076186
v 0.136504 0.005715 -0.102123
v 0.130776 0.000000 -0.101551
v 0.130793 0.000000 -0.109677
v 0.136504 0.005723 -0.110210
v 0.136504 0.266559 -0.110212
v 0.130239 0.271662 -0.109618
v 0.130206 0.271655 -0.101495
v 0.136504 0.266574 -0.102124
v -0.131399 0.216202 -0.076658
v -0.131391 0.216204 -0.084780
v -0.136486 0.209919 -0.084276
v -0.136486 0.209919 -0.076189
v -0.136486 0.191078 -0.084276
v -0.136486 0.191078 -0.076189
v -0.136486 0.199165 -0.076189
v -0.136486 0.199165 -0.084276
v 0.136504 0.005723 0.110209
v 0.130795 0.000000 0.109675
v 0.130778 0.000000 0.101551
v 0.136504 0.005715 0.102121
v 0.136504 0.024804 -0.102254
v 0.136504 0.025982 -0.110514
v 0.136504 0.034413 -0.111935
v -0.136486 0.005723 0.076184
v -0.130778 0.000000 0.076719
v -0.130760 0.000000 0.084842
v -0.136486 0.005715 0.084272
v -0.136486 0.191078 0.076187
v -0.136486 0.191078 0.084275
v -0.136486 0.199165 0.084275
v -0.136486 0.199165 0.076187
v 0.136504 0.034241 0.111691
v 0.136504 0.025982 0.110512
v 0.136504 0.024561 0.102081
v 0.136504 0.238617 0.130399
v 0.136504 0.246710 0.130382
v 0.130476 0.245694 0.135758
v 0.130423 0.237479 0.135752
v -0.131138 0.191958 0.103808
v -0.131116 0.200167 0.103810
v -0.136486 0.199162 0.097758
v -0.136486 0.191076 0.097751
v -0.136486 0.015959 0.076187
v -0.136486 0.015959 0.084275
v -0.136486 0.024046 0.084275
v -0.136486 0.024046 0.076187
v -0.136486 0.015959 -0.084276
v -0.136486 0.015959 -0.076189
v -0.136486 0.024046 -0.076189
v -0.136486 0.024046 -0.084276
v -0.131126 0.016159 -0.103811
v -0.136486 0.015959 -0.097755
v -0.136486 0.024046 -0.097755
v -0.131126 0.024252 -0.103811
v 0.136504 0.026289 -0.130396
v 0.130444 0.026053 -0.135756
v 0.130453 0.034147 -0.135757
v 0.136504 0.034376 -0.130396
v 0.136504 0.238749 -0.111692
v 0.136504 0.247008 -0.110514
v 0.136504 0.248430 -0.102083
v 0.136504 0.248186 0.102253
v 0.136504 0.247008 0.110512
v 0.136504 0.238577 0.111934
v -0.020156 0.236939 -0.100445
v -0.020156 0.236939 0.100444
v -0.020156 0.036051 0.100444
v -0.020156 0.036051 -0.100445
v 0.132133 0.245932 0.110365
vt 0.177096 0.941448
vt 0.169151 0.940948
vt 0.210534 0.034959
vt 0.211919 0.043025
vt 0.450711 0.999839
vt 0.442387 0.999219
vt 0.451186 0.979041
vt 0.486634 0.006467
vt 0.220768 0.258316
vt 0.221094 0.267258
vt 0.210863 0.281332
vt 0.501442 0.260494
vt 0.496159 0.257618
vt 0.503866 0.263955
vt 0.210604 0.488996
vt 0.218360 0.488570
vt 0.000000 0.251043
vt 0.489451 0.498475
vt 0.495537 0.480478
vt 0.497577 0.504998
vt 0.188839 0.726635
vt 0.196400 0.725596
vt 0.009568 0.035149
vt 0.457846 0.739363
vt 0.466513 0.721265
vt 0.465878 0.747009
vt 0.212374 0.053620
vt 0.480278 0.028410
vt 0.212959 0.061834
vt 0.489192 0.027621
vt 0.489335 0.035964
vt 0.218827 0.282258
vt 0.494680 0.283226
vt 0.209500 0.292195
vt 0.217712 0.291439
vt 0.209684 0.463023
vt 0.526506 0.263417
vt 0.518542 0.262113
vt 0.502351 0.290225
vt 0.494508 0.474307
vt 0.213304 0.518226
vt 0.215160 0.509025
vt 0.486306 0.522966
vt 0.000506 0.232220
vt 0.001440 0.062002
vt 0.008717 0.231442
vt 0.759106 0.239595
vt 0.758187 0.248246
vt 0.493414 0.529895
vt 0.466896 0.714173
vt 0.193028 0.757497
vt 0.194034 0.748661
vt 0.455161 0.765819
vt 0.031228 0.035397
vt 0.184589 0.035854
vt 0.730532 0.004043
vt 0.738867 0.004876
vt 0.462484 0.772794
vt 0.451544 0.970925
vt 0.730169 0.269256
vt 0.738288 0.247974
vt 0.487156 0.480430
vt 0.218050 0.472870
vt 0.217881 0.463572
vt 0.022063 0.250799
vt 0.022301 0.239871
vt 0.022433 0.231687
vt 0.030673 0.231838
vt 0.187597 0.243714
vt 0.518080 0.003338
vt 0.510425 0.025766
vt 0.443041 0.978509
vt 0.177492 0.927867
vt 0.177680 0.919488
vt 0.738412 0.025137
vt 0.758331 0.025104
vt 0.759039 0.033275
vt 0.740265 0.033438
vt 0.191508 0.043666
vt 0.191725 0.054129
vt 0.187776 0.235489
vt 0.191809 0.062422
vt 0.196242 0.235832
vt 0.210324 0.236369
vt 0.210728 0.245009
vt 0.500003 0.233932
vt 0.519700 0.242769
vt 0.493128 0.240080
vt 0.219606 0.246589
vt 0.218777 0.237541
vt 0.183852 0.062668
vt 0.031497 0.062262
vt 0.031564 0.054027
vt 0.023308 0.062154
vt 0.009645 0.061948
vt 0.009701 0.053786
vt 0.197299 0.704841
vt 0.458706 0.713420
vt 0.458420 0.720898
vt 0.730378 0.250908
vt 0.478873 0.008412
vt 0.496402 0.264997
vt 0.196858 0.713769
vt 0.508948 0.004889
vt 0.204148 0.042551
vt 0.204630 0.053501
vt 0.009790 0.043131
vt 0.023453 0.043650
vt 0.023387 0.053978
vt 0.457524 0.747077
vt 0.758960 0.005161
vt 0.494114 0.290463
vt 0.486335 0.473268
vt 0.031668 0.043608
vt 0.183944 0.044052
vt 0.183875 0.054444
vt 0.443348 0.970301
vt 0.454256 0.773332
vt 0.196208 0.244170
vt 0.210855 0.256126
vt 0.195818 0.255131
vt 0.187285 0.254631
vt 0.030192 0.250952
vt 0.030483 0.240041
vt 0.008707 0.239675
vt 0.008278 0.250603
vt 0.489455 0.505758
vt 0.738295 0.268141
vt 0.758094 0.268672
vt 0.501237 0.241368
vt 0.480728 0.036506
vt 0.491980 0.232759
vt 0.205030 0.061953
vt 0.485100 0.530090
vt 0.477936 0.000034
vt 0.212884 0.265919
vt 0.217801 0.497441
vt 0.496912 0.499545
vt 0.195733 0.734214
vt 0.465591 0.740832
vt 0.209189 0.289499
vt 0.502428 0.291028
vt 0.503027 0.283256
vt 0.000491 0.232424
vt 0.000497 0.240637
vt 0.493555 0.530813
vt 0.494702 0.523204
vt 0.022889 0.035433
vt 0.031000 0.035392
vt 0.462662 0.773884
vt 0.463462 0.766070
vt 0.494882 0.472733
vt 0.210069 0.473196
vt 0.209004 0.465069
vt 0.451352 0.970926
vt 0.168859 0.919818
vt 0.169398 0.927659
vt 0.188632 0.714430
vt 0.188765 0.705786
vt 0.467342 0.713842
vt 0.527339 0.244672
vt 0.518065 0.234408
vt 0.509166 0.034764
vt 0.740064 0.239111
vt 0.518671 0.022381
vt 0.730262 0.023501
vt 0.638443 0.637721
vt 0.841387 0.637482
vt 0.840842 0.841087
vt 0.637812 0.841053
vt 0.635376 0.999545
vt 0.626948 0.999473
vt 0.841620 0.999953
vt 0.850257 1.000000
vt 0.842973 0.478822
vt 0.851503 0.478781
vt 0.851401 0.483242
vt 0.636558 0.479015
vt 0.627921 0.479026
vt 0.999936 0.842804
vt 0.999936 0.851233
vt 0.999633 0.637676
vt 0.995472 0.630093
vt 0.999880 0.629080
vt 0.479381 0.635934
vt 0.479389 0.627506
vt 0.479526 0.841228
vt 0.479328 0.849863
vn -0.040867 -0.972358 0.229891
vn -0.932839 -0.291501 0.211751
vn -0.942359 -0.334605 0.000050
vn -0.018902 -0.999821 0.000002
vn -0.127692 -0.265879 0.955512
vn -0.010062 -0.963265 0.268364
vn -0.094386 -0.252625 0.962950
vn -0.137341 -0.000282 0.990524
vn -0.961938 -0.004867 0.273224
vn 0.961831 -0.183941 0.202598
vn 0.023555 -0.999723 -0.000002
vn 0.975594 -0.219584 -0.000013
vn 0.973348 0.001503 0.229326
vn -0.094321 0.000186 0.995542
vn -0.174731 0.225864 0.958360
vn -0.944284 0.247721 0.216708
vn -0.964846 0.000080 0.262817
vn -0.137683 0.000003 0.990476
vn -0.239331 0.942377 0.233765
vn -0.147938 0.280328 0.948436
vn -0.206918 0.945881 0.249990
vn -0.224111 0.974564 0.000268
vn -0.956345 0.292209 0.004256
vn 0.956976 0.218499 0.190933
vn -0.096055 -0.000042 0.995376
vn 0.971001 -0.000388 0.239076
vn 0.968066 0.250690 -0.001506
vn -0.183085 0.983097 -0.000144
vn -0.239554 0.942249 -0.234054
vn -0.944832 0.246656 -0.215533
vn -0.958283 0.285820 -0.000028
vn -0.223597 0.974682 -0.000001
vn -0.173712 0.222866 -0.959247
vn -0.207169 0.944546 -0.254781
vn -0.146022 0.270445 -0.951597
vn -0.137835 0.000023 -0.990455
vn -0.964918 0.000329 -0.262552
vn 0.956999 0.218328 -0.191014
vn -0.183269 0.983063 0.000121
vn 0.968062 0.250709 0.001268
vn 0.970851 -0.000158 -0.239683
vn -0.095874 -0.000019 -0.995393
vn -0.127774 -0.265210 -0.955687
vn -0.933521 -0.289759 -0.211137
vn -0.963593 0.000000 -0.267374
vn -0.136917 -0.000000 -0.990583
vn -0.040272 -0.972855 -0.227884
vn -0.094114 -0.252799 -0.962931
vn -0.008945 -0.964959 -0.262250
vn -0.018691 -0.999825 0.000145
vn -0.943462 -0.331472 0.002324
vn 0.962067 -0.183447 -0.201926
vn -0.094067 -0.000002 -0.995566
vn 0.972804 -0.000020 -0.231632
vn 0.975011 -0.222152 -0.001513
vn 0.023935 -0.999714 -0.000151
vn -0.965012 -0.000007 0.262205
vn -1.000000 0.000000 0.000000
vn -1.000000 0.000000 0.000000
vn -0.139790 -0.000000 0.990181
vn -0.097690 0.000001 0.995217
vn -0.136538 0.000000 0.990635
vn -0.961401 0.000003 0.275153
vn 0.969007 0.000010 0.247034
vn 1.000000 -0.000000 0.000000
vn 1.000000 -0.000000 0.000000
vn 0.973181 -0.000009 0.230043
vn -0.092002 -0.000000 0.995759
vn -0.956401 0.292058 0.000006
vn -1.000000 0.000000 0.000000
vn -1.000000 0.000000 0.000000
vn -0.221836 0.975084 0.000000
vn -0.179125 0.983826 -0.000001
vn -0.221837 0.975084 -0.000001
vn -0.956401 0.292058 -0.000006
vn 0.968249 0.249988 -0.000010
vn 1.000000 0.000000 0.000000
vn 1.000000 0.000000 0.000000
vn 0.967987 0.250999 0.000014
vn -0.179128 0.983826 0.000001
vn -0.136539 0.000000 -0.990635
vn -0.092006 0.000000 -0.995759
vn -0.961389 0.000003 -0.275195
vn -0.139790 -0.000000 -0.990181
vn -0.964997 -0.000005 -0.262262
vn -1.000000 0.000000 0.000000
vn -1.000000 -0.000000 0.000000
vn 0.973396 -0.000005 -0.229129
vn 1.000000 0.000000 0.000000
vn 1.000000 0.000000 0.000000
vn 0.968768 0.000007 -0.247969
vn -0.097698 0.000001 -0.995216
vn -0.938752 -0.344593 -0.000012
vn -1.000000 0.000000 0.000000
vn -1.000000 0.000000 0.000000
vn -0.016947 -0.999856 -0.000001
vn 0.026619 -0.999646 0.000000
vn -0.016946 -0.999856 0.000000
vn -0.938748 -0.344605 0.000008
vn 0.976014 -0.217709 0.000004
vn 1.000000 -0.000000 0.000000
vn 1.000000 -0.000000 0.000000
vn 0.975827 -0.218546 -0.000006
vn 0.026617 -0.999646 -0.000001
vn 1.000000 0.000000 0.000000
vn -1.000000 0.000000 0.000000
vn -1.000000 0.000000 0.000000
vn -1.000000 0.000000 0.000000
vn -1.000000 0.000000 0.000000
vn -1.000000 0.000000 0.000000
vn 1.000000 -0.000000 0.000000
vn 0.072395 0.997370 0.003452
vn 0.072512 0.987368 0.140877
vn 0.072379 0.997377 0.000695
vn 1.000000 0.000000 0.000000
vn -1.000000 0.000000 0.000000
vn -1.000000 0.000000 0.000000
vn -1.000000 0.000000 0.000000
vn 0.072395 0.003452 -0.997370
vn 0.072512 0.140878 -0.987368
vn 0.072379 0.000695 -0.997377
vn 1.000000 0.000000 0.000000
vn 0.072379 -0.000695 0.997377
vn 0.072395 -0.003452 0.997370
vn 0.072512 -0.140877 0.987368
vn 0.072515 -0.997353 -0.005383
vn 0.090375 -0.742801 -0.663385
vn 0.090518 -0.706798 -0.701601
vn 0.072383 -0.997377 -0.000766
vn 0.072380 -0.000478 0.997377
vn 0.072429 0.002860 0.997370
vn 0.072380 -0.997377 -0.000478
vn 0.072429 -0.997370 0.002860
vn 0.072380 0.000500 -0.997377
vn 0.072425 -0.002541 -0.997371
vn 0.072380 0.997377 0.000478
vn 0.072429 0.997370 -0.002860
vn 1.000000 -0.000000 0.000000
vn 1.000000 -0.000000 0.000000
vn 1.000000 -0.000000 0.000000
vn 1.000000 -0.000000 0.000000
vn 0.073859 0.983389 -0.165807
vn 0.073859 0.165807 0.983389
vn 0.073859 -0.983389 0.165807
s 1
g TVsquareBroken TVsquare
usemtl lambert1SG
f 16/16/22 18/17/23 94/172/24 93/88/25
f 17/19/26 16/18/22 21/150/27 20/116/28
f 18/120/23 17/19/26 41/42/29 40/121/30
f 19/20/31 21/21/27 85/87/32 84/22/33
f 20/116/28 19/23/31 47/45/34 46/43/35
f 22/24/36 24/135/37 108/100/38 107/104/39
f 23/25/40 22/24/36 27/28/41 26/117/42
f 24/151/37 23/25/40 49/47/43 48/26/44
f 25/27/45 27/28/41 104/103/46 103/145/47
f 26/117/42 25/29/45 55/158/48 54/48/49
f 28/31/50 30/30/51 78/168/52 77/78/53
f 29/152/54 28/31/50 33/33/55 32/142/56
f 30/141/51 29/32/54 59/160/57 58/140/58
f 31/153/59 33/33/55 73/77/60 72/34/61
f 32/142/56 31/35/59 63/162/62 62/58/63
f 34/37/64 36/36/65 119/173/66 118/118/67
f 35/154/68 34/37/64 39/39/69 38/125/70
f 36/122/65 35/38/68 65/163/71 64/123/72
f 37/155/73 39/39/69 123/114/74 122/40/75
f 38/125/70 37/41/73 71/166/76 70/68/77
f 40/121/30 43/148/78 112/97/79 111/95/80
f 42/44/81 41/42/29 46/43/35 45/146/82
f 43/148/78 42/44/81 106/105/83 109/99/84
f 44/46/85 47/45/34 100/86/86 99/178/87
f 45/146/82 44/46/85 102/101/88 105/147/89
f 48/136/44 51/137/90 98/84/91 97/134/92
f 50/50/93 49/47/43 54/48/49 53/127/94
f 51/49/90 50/50/93 76/79/95 79/51/96
f 52/52/97 55/53/48 130/102/98 129/176/99
f 53/127/94 52/54/97 75/55/100 74/128/101
f 56/56/102 59/57/57 62/58/63 61/149/103
f 57/61/104 56/59/102 121/60/105 120/110/106
f 58/140/58 57/61/104 80/82/107 83/81/108
f 60/62/109 63/63/62 127/76/110 126/179/111
f 61/149/103 60/64/109 125/65/112 124/113/113
f 64/123/72 67/129/114 115/108/115 114/124/116
f 66/66/117 65/67/71 70/68/77 69/133/118
f 67/129/114 66/69/117 92/70/119 91/130/120
f 68/71/121 71/72/76 89/90/122 88/181/123
f 69/133/118 68/73/121 87/74/124 86/132/125
f 72/143/61 75/75/100 128/115/126 127/76/110
f 74/128/101 73/77/60 77/78/53 76/79/95
f 79/138/96 78/80/52 83/81/108 82/139/127
f 81/83/128 80/82/107 117/109/129 116/107/130
f 82/139/127 81/83/128 95/96/131 98/84/91
f 84/119/33 87/85/124 101/180/132 100/86/86
f 86/132/125 85/87/32 93/88/25 92/89/119
s 5
f 88/186/133 89/187/134 135/185/135
s 1
f 90/93/136 89/90/122 122/91/75 125/92/112
f 91/130/120 94/94/24 111/95/80 110/131/137
f 96/98/138 95/96/131 113/106/139 112/97/79
f 97/134/92 96/98/138 109/99/84 108/100/38
s 6
f 99/195/140 100/196/141 134/184/142
s 1
f 103/145/47 102/101/88 131/177/143 130/102/98
f 105/147/89 104/103/46 107/104/39 106/105/83
f 110/131/137 113/106/139 116/107/130 115/108/115
f 114/124/116 117/109/129 120/110/106 119/111/66
f 118/118/67 121/112/105 124/113/113 123/114/74
s 7
f 132/182/144 126/200/145 127/201/146
s 6
f 129/190/147 130/191/148 136/192/149 133/183/150
s 7
f 126/200/145 132/182/144 135/185/151 90/202/152
s 6
f 129/190/147 133/183/150 132/182/153 128/193/154
f 99/195/140 134/184/142 133/183/155 131/197/156
s 5
f 88/186/133 135/185/135 134/184/157 101/188/158
s 1
f 17/19/26 20/116/28 46/43/35 41/42/29
f 23/25/40 26/117/42 54/48/49 49/47/43
f 118/118/67 123/114/74 39/39/69 34/37/64
f 93/88/25 85/87/32 21/21/27 16/16/22
f 19/23/31 84/119/33 100/86/86 47/45/34
f 94/94/24 18/120/23 40/121/30 111/95/80
f 77/78/53 73/77/60 33/33/55 28/31/50
f 36/122/65 64/123/72 114/124/116 119/111/66
f 35/154/68 38/125/70 70/68/77 65/67/71
f 89/90/122 71/72/76 37/126/73 122/91/75
f 76/79/95 50/50/93 53/127/94 74/128/101
f 67/129/114 91/130/120 110/131/137 115/108/115
f 86/132/125 92/89/119 66/66/117 69/133/118
f 88/181/123 101/180/132 87/85/124 68/71/121
f 107/104/39 104/103/46 27/28/41 22/24/36
f 97/134/92 108/100/38 24/135/37 48/136/44
f 98/84/91 51/137/90 79/138/96 82/139/127
f 58/140/58 83/81/108 78/80/52 30/141/51
f 29/152/54 32/142/56 62/58/63 59/57/57
f 72/143/61 127/76/110 63/63/62 31/144/59
f 75/75/100 52/52/97 129/176/99 128/115/126
f 103/145/47 130/102/98 55/53/48 25/27/45
f 106/105/83 42/44/81 45/146/82 105/147/89
f 112/97/79 43/148/78 109/99/84 96/98/138
f 113/106/139 95/96/131 81/83/128 116/107/130
f 120/110/106 117/109/129 80/82/107 57/61/104
f 124/113/113 121/112/105 56/56/102 61/149/103
f 126/179/111 90/93/136 125/92/112 60/62/109
s off
f 132/182/159 133/183/160 134/184/161 135/185/162
s 1
f 102/101/88 44/46/85 99/178/87 131/177/143
f 16/18/22 17/19/26 18/120/23
f 19/23/31 20/116/28 21/150/27
f 22/24/36 23/25/40 24/151/37
f 25/29/45 26/117/42 27/28/41
f 28/31/50 29/152/54 30/30/51
f 31/153/59 32/142/56 33/33/55
f 34/37/64 35/154/68 36/36/65
f 37/155/73 38/125/70 39/39/69
f 40/121/30 41/42/29 42/44/81 43/148/78
f 44/46/85 45/146/82 46/43/35 47/45/34
f 48/26/44 49/47/43 50/50/93 51/156/90
f 52/157/97 53/127/94 54/48/49 55/158/48
f 56/159/102 57/61/104 58/140/58 59/160/57
f 60/161/109 61/149/103 62/58/63 63/162/62
f 64/123/72 65/163/71 66/164/117 67/129/114
f 68/165/121 69/133/118 70/68/77 71/166/76
f 72/34/61 73/77/60 74/128/101 75/167/100
f 76/79/95 77/78/53 78/168/52 79/169/96
f 80/82/107 81/83/128 82/139/127 83/81/108
f 84/22/33 85/87/32 86/132/125 87/170/124
f 91/171/120 92/89/119 93/88/25 94/172/24
f 95/96/131 96/98/138 97/134/92 98/84/91
f 102/101/88 103/145/47 104/103/46 105/147/89
f 106/105/83 107/104/39 108/100/38 109/99/84
f 110/131/137 111/95/80 112/97/79 113/106/139
f 114/124/116 115/108/115 116/107/130 117/109/129
f 118/118/67 119/173/66 120/174/106 121/112/105
f 122/40/75 123/114/74 124/113/113 125/175/112
s 5
f 134/184/157 100/189/163 101/188/158
s 7
f 135/185/151 89/203/164 90/202/152
s 6
f 133/183/155 136/198/149 130/199/148 131/197/156
f 132/182/153 127/194/165 128/193/154
