# Blender 3.5.1
# www.blender.org
mtllib test2.mtl
o tvFuture
v -0.152599 -0.774688 2.591300
v -0.229799 -1.645537 2.495750
v -0.208549 -1.661338 -0.000000
v -0.126849 -0.778638 -0.000000
v -0.229799 -1.645538 -2.495750
v -0.152599 -0.774688 -2.591300
v -0.126849 0.035913 2.623199
v -0.152599 0.846512 2.591300
v -0.229799 1.717363 2.495749
v -0.208549 1.733112 -0.000001
v -0.126849 0.850462 -0.000001
v -0.152599 0.846512 -2.591300
v -0.229799 1.717362 -2.495751
v -0.126849 0.035913 -2.623201
v -0.099599 0.035913 -0.000000
v -0.219174 -1.653438 1.247875
v -0.305549 -2.068262 2.393700
v -0.330424 -1.598187 3.462725
v -0.191199 -1.210113 -2.543526
v -0.167699 -1.219988 -0.000000
v -0.286625 -2.090188 -0.000000
v -0.219174 -1.653438 -1.247875
v -0.245775 0.035913 3.672625
v -0.305549 2.140088 2.393699
v -0.139724 0.848487 -1.295651
v -0.113224 0.443188 -0.000001
v -0.139724 0.441212 -2.607251
v -0.139724 -0.369388 -2.607251
v -0.167699 1.291787 -0.000001
v -0.139724 -0.776663 -1.295650
v -0.139724 0.441213 2.607249
v -0.219174 1.725238 1.247874
v -0.191199 1.281937 -2.543526
v -0.266949 0.834662 -3.620125
v -0.245775 0.035912 -3.672626
v -0.113224 -0.371362 -0.000000
v -0.330424 1.670013 3.462724
v -0.330424 -1.598188 -3.462725
v -0.191199 -1.210112 2.543525
v -0.139724 -0.776662 1.295650
v -0.266949 -0.762862 3.620125
v -0.139724 -0.369387 2.607249
v -0.266949 0.834663 3.620125
v -0.191199 1.281937 2.543525
v -0.286625 2.161987 -0.000001
v -0.139724 0.848487 1.295649
v -0.219174 1.725238 -1.247876
v -0.305549 2.140087 -2.393701
v -0.266949 -0.762863 -3.620125
v -0.113224 0.035913 -1.311600
v -0.330424 1.670012 -3.462726
v -0.113224 0.035913 1.311600
v -0.305549 -2.068263 -2.393700
v -0.395987 -1.999050 -3.327850
v -0.298687 -1.180525 -3.541425
v -0.298687 1.252337 -3.541425
v -0.395987 2.070863 -3.327851
v -0.395987 2.070863 3.327850
v -0.298687 1.252338 3.541425
v -0.298687 -1.180525 3.541425
v -0.395987 -1.999050 3.327850
v -0.126474 0.442200 1.303625
v -0.126474 0.442200 -1.303625
v -0.126474 -0.370375 -1.303625
v -0.126474 -0.370375 1.303625
v -0.256362 -0.363475 -3.646376
v -0.256362 0.435287 -3.646375
v -0.296087 2.151037 -1.196851
v -0.179449 1.286862 -1.271763
v -0.179449 1.286862 1.271762
v -0.296087 2.151037 1.196849
v -0.256362 0.435288 3.646375
v -0.256362 -0.363475 3.646374
v -0.179449 -1.215050 -1.271763
v -0.296087 -2.079225 -1.196850
v -0.296087 -2.079225 1.196850
v -0.179449 -1.215050 1.271762
vn 0.9956 -0.0936 0.0067
vn 0.9910 -0.1337 0.0043
vn 0.9910 -0.1338 -0.0000
vn 0.9957 -0.0922 0.0008
vn 0.9962 -0.0867 -0.0074
vn 0.9910 -0.1337 -0.0043
vn 0.9886 -0.1354 -0.0664
vn 0.9931 -0.0958 -0.0670
vn 0.9933 -0.0359 0.1095
vn 0.9921 -0.0626 0.1084
vn 0.9957 -0.0636 0.0681
vn 0.9976 -0.0384 0.0569
vn 0.9931 0.0369 0.1117
vn 0.9977 0.0274 0.0612
vn 0.9964 0.0642 0.0549
vn 0.9921 0.0645 0.1076
vn 0.9835 0.1802 0.0137
vn 0.9915 0.1299 0.0106
vn 0.9910 0.1339 -0.0000
vn 0.9840 0.1782 -0.0000
vn 0.9954 0.0952 0.0082
vn 0.9978 0.0654 0.0100
vn 0.9980 0.0630 -0.0000
vn 0.9959 0.0903 -0.0000
vn 0.9955 0.0936 -0.0124
vn 0.9979 0.0642 -0.0127
vn 0.9964 0.0642 -0.0549
vn 0.9946 0.0878 -0.0552
vn 0.9845 0.1749 -0.0109
vn 0.9901 0.1399 -0.0082
vn 0.9872 0.1494 -0.0556
vn 0.9813 0.1855 -0.0518
vn 0.9934 0.0359 -0.1094
vn 0.9921 0.0626 -0.1084
vn 0.9976 0.0384 -0.0569
vn 0.9935 -0.0337 -0.1085
vn 0.9972 -0.0339 -0.0672
vn 0.9956 -0.0640 -0.0681
vn 0.9919 -0.0615 -0.1110
vn 0.9995 -0.0307 0.0078
vn 0.9995 -0.0331 -0.0000
vn 1.0000 -0.0000 -0.0000
vn 1.0000 0.0001 0.0073
vn 0.9995 -0.0305 -0.0079
vn 0.9976 -0.0000 -0.0686
vn 0.9999 -0.0001 -0.0132
vn 0.9993 0.0349 -0.0125
vn 0.9993 0.0361 0.0102
vn 0.9995 0.0331 -0.0000
vn 0.9752 -0.1952 0.1046
vn 0.9811 -0.1825 0.0643
vn 0.9868 -0.1465 0.0694
vn 0.9838 -0.1406 0.1109
vn 0.9898 0.0962 0.1050
vn 0.9932 0.1015 0.0579
vn 0.9898 -0.0913 -0.1090
vn 0.9838 -0.1406 -0.1109
vn 0.9813 -0.1855 -0.0518
vn 0.9741 -0.1952 -0.1137
vn 0.9896 0.0918 -0.1112
vn 0.9838 0.1465 -0.1037
vn 0.9737 0.2008 -0.1076
vn 0.9838 0.1406 0.1109
vn 0.9872 0.1494 0.0556
vn 0.9793 0.1951 0.0541
vn 0.9741 0.1952 0.1138
vn 0.9929 -0.1002 0.0640
vn 0.9896 -0.0918 0.1112
vn 0.9976 -0.0000 0.0686
vn 0.9981 -0.0618 -0.0000
vn 0.9982 -0.0593 -0.0075
vn 0.9980 -0.0617 0.0135
vn 0.9934 -0.0002 -0.1151
vn 0.9934 0.0002 0.1151
vn 0.9846 -0.1746 -0.0109
vn 0.9839 -0.1790 0.0007
vn 0.9831 -0.1828 0.0079
vt 0.151282 0.286548
vt 0.164169 0.100645
vt 0.503790 0.100032
vt 0.503460 0.288921
vt 0.843397 0.107467
vt 0.855634 0.293622
vt 0.146774 0.458872
vt 0.150798 0.661090
vt 0.163171 0.881732
vt 0.502785 0.890780
vt 0.502976 0.666920
vt 0.855157 0.669991
vt 0.842407 0.890316
vt 0.859540 0.466031
vt 0.503157 0.462451
vt 0.333887 0.099980
vt 0.177728 0.009074
vt 0.031771 0.107974
vt 0.849536 0.200574
vt 0.503625 0.194507
vt 0.503952 0.007059
vt 0.673687 0.103393
vt 0.003209 0.457430
vt 0.176478 0.990592
vt 0.679167 0.668655
vt 0.503064 0.564074
vt 0.857364 0.567859
vt 0.857602 0.379839
vt 0.502881 0.778814
vt 0.679648 0.291106
vt 0.148766 0.558904
vt 0.332885 0.886678
vt 0.848803 0.780119
vt 0.995966 0.669722
vt 1.003104 0.467473
vt 0.503308 0.375697
vt 0.030796 0.869796
vt 0.975764 0.117456
vt 0.157704 0.193626
vt 0.327270 0.287567
vt 0.010473 0.286857
vt 0.149012 0.372722
vt 0.009993 0.657262
vt 0.156963 0.771376
vt 0.502691 1.000979
vt 0.326786 0.664202
vt 0.672688 0.890973
vt 0.828915 0.998837
vt 0.996436 0.296760
vt 0.681440 0.464242
vt 0.974799 0.881726
vt 0.324873 0.460661
vt 0.830158 0.015626
vt 0.958164 0.030115
vt 0.986154 0.207066
vt 0.985436 0.775774
vt 0.956959 0.984803
vt 0.048460 0.973322
vt 0.020341 0.763578
vt 0.021069 0.197374
vt 0.049675 0.020991
vt 0.325833 0.561576
vt 0.680295 0.566056
vt 0.680537 0.377694
vt 0.326078 0.374134
vt 0.999820 0.382086
vt 0.999584 0.568682
vt 0.665808 1.000332
vt 0.675923 0.779750
vt 0.329840 0.775376
vt 0.339578 0.996209
vt 0.006546 0.556133
vt 0.006792 0.372113
vt 0.676662 0.197303
vt 0.667062 0.010984
vt 0.340834 0.007708
vt 0.330583 0.193827
s 1
usemtl lambert1SG.001
f 77/77/1 16/16/2 3/3/3 20/20/4
f 74/74/5 22/22/6 5/5/7 19/19/8
f 73/73/9 41/41/10 1/1/11 42/42/12
f 72/72/13 31/31/14 8/8/15 43/43/16
f 71/71/17 32/32/18 10/10/19 45/45/20
f 70/70/21 46/46/22 11/11/23 29/29/24
f 69/69/25 25/25/26 12/12/27 33/33/28
f 68/68/29 47/47/30 13/13/31 48/48/32
f 67/67/33 34/34/34 12/12/27 27/27/35
f 66/66/36 28/28/37 6/6/38 49/49/39
f 65/65/40 36/36/41 15/15/42 52/52/43
f 64/64/44 28/28/37 14/14/45 50/50/46
f 63/63/47 27/27/35 12/12/27 25/25/26
f 62/62/48 26/26/49 11/11/23 46/46/22
f 61/61/50 17/17/51 2/2/52 18/18/53
f 59/59/54 43/43/16 8/8/15 44/44/55
f 55/55/56 49/49/39 6/6/38 19/19/8
f 38/38/57 5/5/7 53/53/58 54/54/59
f 38/38/57 55/55/56 19/19/8 5/5/7
f 13/13/31 33/33/28 56/56/60 51/51/61
f 33/33/28 12/12/27 34/34/34 56/56/60
f 48/48/32 13/13/31 51/51/61 57/57/62
f 37/37/63 9/9/64 24/24/65 58/58/66
f 37/37/63 59/59/54 44/44/55 9/9/64
f 2/2/52 39/39/67 60/60/68 18/18/53
f 39/39/67 1/1/11 41/41/10 60/60/68
f 31/31/14 62/62/48 46/46/22 8/8/15
f 7/7/69 52/52/43 62/62/48 31/31/14
f 52/52/43 15/15/42 26/26/49 62/62/48
f 26/26/49 63/63/47 25/25/26 11/11/23
f 15/15/42 50/50/46 63/63/47 26/26/49
f 50/50/46 14/14/45 27/27/35 63/63/47
f 36/36/41 64/64/44 50/50/46 15/15/42
f 4/4/70 30/30/71 64/64/44 36/36/41
f 30/30/71 6/6/38 28/28/37 64/64/44
f 42/42/12 65/65/40 52/52/43 7/7/69
f 1/1/11 40/40/72 65/65/40 42/42/12
f 40/40/72 4/4/70 36/36/41 65/65/40
f 35/35/73 14/14/45 28/28/37 66/66/36
f 35/35/73 67/67/33 27/27/35 14/14/45
f 45/45/20 10/10/19 47/47/30 68/68/29
f 47/47/30 69/69/25 33/33/28 13/13/31
f 10/10/19 29/29/24 69/69/25 47/47/30
f 29/29/24 11/11/23 25/25/26 69/69/25
f 32/32/18 70/70/21 29/29/24 10/10/19
f 9/9/64 44/44/55 70/70/21 32/32/18
f 44/44/55 8/8/15 46/46/22 70/70/21
f 24/24/65 9/9/64 32/32/18 71/71/17
f 23/23/74 7/7/69 31/31/14 72/72/13
f 23/23/74 73/73/9 42/42/12 7/7/69
f 30/30/71 74/74/5 19/19/8 6/6/38
f 4/4/70 20/20/4 74/74/5 30/30/71
f 20/20/4 3/3/3 22/22/6 74/74/5
f 22/22/6 75/75/75 53/53/58 5/5/7
f 3/3/3 21/21/76 75/75/75 22/22/6
f 16/16/2 76/76/77 21/21/76 3/3/3
f 2/2/52 17/17/51 76/76/77 16/16/2
f 40/40/72 77/77/1 20/20/4 4/4/70
f 1/1/11 39/39/67 77/77/1 40/40/72
f 39/39/67 2/2/52 16/16/2 77/77/1
