# Blender 3.5.1
# www.blender.org
mtllib test.mtl
o TvHangingScreen
v 0.028900 16.658699 -6.921951
v 0.028900 16.658699 6.015499
v 0.028900 2.992650 -6.921950
v 0.028900 2.992651 6.015500
v 2.024800 2.992651 11.871650
v 2.024800 16.658699 11.871649
v 2.005750 2.992649 -12.790249
v 2.005750 16.658697 -12.790250
vn 0.9865 -0.0000 -0.1635
vn 0.9868 -0.0000 0.1618
vn 0.9465 -0.0000 -0.3226
vn 0.9477 -0.0000 0.3192
vt 0.753361 0.998612
vt 0.242412 0.998142
vt 0.754277 0.001857
vt 0.243328 0.001387
vt -0.001017 0.001163
vt -0.001933 0.997918
vt 0.998835 0.002082
vt 0.997920 0.998837
s 1
usemtl lambert1SG
f 2/2/1 4/4/1 3/3/2 1/1/2
f 6/6/3 5/5/3 4/4/1 2/2/1
f 1/1/2 3/3/2 7/7/4 8/8/4
