# This file uses centimeters as units for non-parametric coordinates.

v -2.129849 0.904435 1.233487
v 2.142746 0.851566 1.233486
v 0.006449 0.878002 -2.466973
v 0.006185 0.878252 2.466974
v 2.142484 0.851816 -1.233487
v -2.130111 0.904686 -1.233486
v 0.020908 2.070292 -0.000000
v -2.460712 0.908531 0.000000
v -1.227266 0.893267 2.136560
v 0.018412 1.868559 1.240201
v -1.055552 1.881849 -0.620100
v -1.055551 1.881849 0.620100
v 1.239630 0.862741 2.136560
v 2.473081 0.847479 -0.000001
v 1.092375 1.855270 -0.620101
v 1.092375 1.855270 0.620100
v 1.239630 0.862741 -2.136560
v -1.227266 0.893267 -2.136560
v 0.018411 1.868558 -1.240201
v -1.762365 1.421340 -1.024858
v -2.376657 0.907491 -0.638529
v -1.945423 1.423608 0.341619
v -1.055551 1.881849 0.000000
v -1.831168 1.486464 -0.337605
v -2.376657 0.907491 0.638529
v -1.738177 0.899592 1.744493
v -1.262238 1.415154 1.525024
v -1.935697 1.321380 1.124210
v -0.632297 0.885905 2.383023
v 0.012606 1.399378 2.049717
v -0.518570 1.875204 0.930151
v -0.616531 1.471433 1.766368
v 0.020908 2.070292 0.588820
v -0.488987 2.076600 -0.294410
v -0.488987 2.076600 0.294410
v 0.644663 0.870105 2.383023
v 1.287449 1.383602 1.525023
v 0.555393 1.861915 0.930151
v 0.643333 1.455843 1.766368
v 1.750542 0.856419 1.744492
v 2.389024 0.848518 0.638528
v 1.970636 1.375150 0.341619
v 1.958380 1.273193 1.124209
v 2.389023 0.848518 -0.638529
v 1.787576 1.377413 -1.024859
v 1.092375 1.855270 -0.000000
v 1.857969 1.440814 -0.337606
v 0.530802 2.063982 -0.294410
v 0.530802 2.063982 0.294410
v 1.750542 0.856419 -1.744493
v 0.695792 1.390926 -1.866643
v 0.555393 1.861915 -0.930151
v 1.228038 1.448608 -1.428763
v 0.644663 0.870105 -2.383023
v -0.632298 0.885906 -2.383023
v -0.670581 1.407834 -1.866643
v 0.011342 1.297287 -2.248419
v -1.738177 0.899592 -1.744492
v -0.518570 1.875204 -0.930151
v -1.201236 1.478669 -1.428763
v 0.020908 2.070292 -0.588820
v -2.371385 0.405336 -1.369226
v -2.645062 0.408447 -0.708796
v -2.738368 0.409603 0.000000
v -2.645062 0.408447 0.708796
v -2.371094 0.405058 1.369227
v -1.936320 0.399676 1.936467
v -1.369186 0.392658 2.371680
v -0.708743 0.384487 2.645265
v 0.000002 0.375991 2.738453
v 0.708741 0.366946 2.645265
v 1.369182 0.358773 2.371680
v 1.936317 0.351756 1.936467
v 2.371683 0.346369 1.369227
v 2.645061 0.342985 0.708796
v 2.738368 0.341829 -0.000001
v 2.645061 0.342983 -0.708797
v 2.371391 0.346645 -1.369227
v 1.936317 0.351755 -1.936468
v 1.369182 0.358776 -2.371680
v 0.708740 0.366945 -2.645264
v 0.000295 0.375714 -2.738453
v -0.708743 0.384487 -2.645264
v -1.369186 0.392658 -2.371680
v -1.936320 0.399676 -1.936467
v -2.305628 0.151516 -1.329456
v -2.571354 0.154538 -0.688208
v -2.661951 0.155658 0.000000
v -2.571354 0.154538 0.688208
v -2.305345 0.151245 1.329456
v -1.883199 0.146020 1.880220
v -1.332538 0.139208 2.302791
v -0.691278 0.131273 2.568430
v -0.003119 0.123023 2.658912
v 0.685032 0.114241 2.568430
v 1.326291 0.106304 2.302791
v 1.876953 0.099492 1.880220
v 2.299672 0.094263 1.329456
v 2.565111 0.090976 0.688208
v 2.655707 0.089856 -0.000001
v 2.565110 0.090975 -0.688209
v 2.299389 0.094531 -1.329457
v 1.876952 0.099491 -1.880220
v 1.326291 0.106305 -2.302791
v 0.685032 0.114241 -2.568430
v -0.002836 0.122752 -2.658911
v -0.691279 0.131273 -2.568430
v -1.332539 0.139207 -2.302791
v -1.883200 0.146020 -1.880220
v -2.224489 0.027468 -1.281730
v -2.480677 0.030381 -0.663502
v -2.568021 0.031461 0.000000
v -2.480677 0.030381 0.663503
v -2.224217 0.027208 1.281730
v -1.817226 0.022171 1.812722
v -1.286332 0.015600 2.220124
v -0.668094 0.007952 2.476225
v -0.004639 0.000000 2.563459
v 0.658809 -0.008468 2.476225
v 1.277047 -0.016120 2.220124
v 1.807941 -0.022686 1.812722
v 2.215485 -0.027729 1.281730
v 2.471394 -0.030899 0.663502
v 2.558738 -0.031980 -0.000001
v 2.471393 -0.030898 -0.663503
v 2.215211 -0.027470 -1.281730
v 1.807940 -0.022687 -1.812722
v 1.277047 -0.016119 -2.220124
v 0.658809 -0.008468 -2.476226
v -0.004365 -0.000262 -2.563459
v -0.668094 0.007952 -2.476226
v -1.286333 0.015600 -2.220124
v -1.817226 0.022171 -1.812722
v -0.466253 0.005532 -0.266548
v -0.519530 0.006139 -0.137982
v -0.537693 0.006363 -0.000000
v -0.519530 0.006139 0.137981
v -0.466198 0.005480 0.266548
v -0.381560 0.004431 0.376973
v -0.271155 0.003066 0.461696
v -0.142586 0.001474 0.514955
v -0.004614 -0.000178 0.533095
v 0.133356 -0.001940 0.514955
v 0.261925 -0.003533 0.461696
v 0.372330 -0.004898 0.376973
v 0.457081 -0.005948 0.266548
v 0.510299 -0.006605 0.137981
v 0.528464 -0.006830 -0.000000
v 0.510299 -0.006605 -0.137982
v 0.457025 -0.005892 -0.266548
v 0.372330 -0.004898 -0.376973
v 0.261925 -0.003533 -0.461696
v 0.133356 -0.001940 -0.514956
v -0.004557 -0.000233 -0.533095
v -0.142586 0.001474 -0.514956
v -0.271155 0.003066 -0.461696
v -0.381560 0.004431 -0.376973
vt 0.773352 0.781510
vt 0.761526 0.835035
vt 0.709902 0.861695
vt 0.696613 0.824984
vt 0.679015 0.884009
vt 0.657617 0.848806
vt 0.647407 0.807841
vt 0.690299 0.780155
vt 0.748327 0.746197
vt 0.648431 0.765272
vt 0.684521 0.734966
vt 0.659286 0.725477
vt 0.679483 0.691822
vt 0.706432 0.666096
vt 0.716917 0.706624
vt 0.737857 0.649795
vt 0.746073 0.691080
vt 0.771873 0.643213
vt 0.773874 0.675981
vt 0.775583 0.714932
vt 0.760250 0.726737
vt 0.249318 0.047105
vt 0.281168 0.028400
vt 0.282212 0.068320
vt 0.253356 0.086103
vt 0.283145 0.102177
vt 0.254330 0.119929
vt 0.220410 0.140870
vt 0.218651 0.104050
vt 0.218183 0.067106
vt 0.796373 0.731062
vt 0.803728 0.688543
vt 0.806079 0.646354
vt 0.838259 0.658441
vt 0.835451 0.699603
vt 0.820796 0.749640
vt 0.866778 0.678485
vt 0.870061 0.718424
vt 0.890044 0.704863
vt 0.906218 0.736414
vt 0.915141 0.770961
vt 0.874037 0.758516
vt 0.916090 0.806522
vt 0.872459 0.794923
vt 0.909005 0.841256
vt 0.876038 0.830524
vt 0.830791 0.817614
vt 0.824516 0.783781
vt 0.347556 0.100407
vt 0.347916 0.137210
vt 0.312896 0.118262
vt 0.311972 0.084452
vt 0.313882 0.045467
vt 0.345940 0.063617
vt 0.813343 0.841498
vt 0.853594 0.857056
vt 0.894102 0.873070
vt 0.872268 0.900021
vt 0.834754 0.884911
vt 0.797196 0.861340
vt 0.844335 0.920472
vt 0.807186 0.910091
vt 0.812059 0.932983
vt 0.777020 0.935696
vt 0.741424 0.928533
vt 0.771995 0.898641
vt 0.707996 0.911089
vt 0.744003 0.879972
vt 0.778233 0.852904
vt 0.252541 0.158894
vt 0.284101 0.135987
vt 0.316911 0.157035
vt 0.285245 0.175793
vt 0.649962 0.907107
vt 0.622806 0.863277
vt 0.609285 0.812506
vt 0.610467 0.759963
vt 0.625286 0.710919
vt 0.651737 0.669542
vt 0.686753 0.638341
vt 0.727191 0.618718
vt 0.770227 0.611056
vt 0.813047 0.615098
vt 0.853095 0.629981
vt 0.888277 0.654351
vt 0.916727 0.686503
vt 0.936721 0.724638
vt 0.947514 0.766404
vt 0.948602 0.809468
vt 0.939781 0.851574
vt 0.921387 0.890323
vt 0.894314 0.923432
vt 0.859707 0.948889
vt 0.819243 0.964707
vt 0.775085 0.969103
vt 0.729960 0.961179
vt 0.687053 0.940377
vt 0.634926 0.919595
vt 0.604457 0.871171
vt 0.589230 0.814960
vt 0.590699 0.756872
vt 0.607688 0.702856
vt 0.637580 0.657509
vt 0.676838 0.623565
vt 0.721881 0.602372
vt 0.769535 0.594269
vt 0.816736 0.598909
vt 0.860732 0.615309
vt 0.899271 0.641957
vt 0.930384 0.677066
vt 0.952254 0.718631
vt 0.963997 0.764102
vt 0.965166 0.810990
vt 0.955513 0.856876
vt 0.935373 0.899193
vt 0.905717 0.935471
vt 0.867774 0.963560
vt 0.823211 0.981241
vt 0.774419 0.986564
vt 0.724374 0.978409
vt 0.676494 0.956016
vt 0.625107 0.927928
vt 0.592365 0.876453
vt 0.576020 0.816562
vt 0.577732 0.754733
vt 0.596200 0.697418
vt 0.628410 0.649490
vt 0.670465 0.613797
vt 0.718501 0.591636
vt 0.769141 0.583281
vt 0.819175 0.588354
vt 0.865713 0.605763
vt 0.906405 0.633905
vt 0.939244 0.670939
vt 0.962313 0.714740
vt 0.974663 0.762615
vt 0.975883 0.811975
vt 0.965707 0.860318
vt 0.944456 0.904950
vt 0.913159 0.943291
vt 0.873077 0.973109
vt 0.825879 0.992049
vt 0.774102 0.998008
vt 0.720855 0.989756
vt 0.669690 0.966384
vt 0.026245 0.565275
vt 0.051735 0.535643
vt 0.130770 0.624135
vt 0.125452 0.630303
vt 0.009247 0.600502
vt 0.121930 0.637626
vt 0.001950 0.638935
vt 0.120426 0.645614
vt 0.004878 0.677958
vt 0.121046 0.653723
vt 0.017767 0.714901
vt 0.123736 0.661400
vt 0.039808 0.747252
vt 0.128327 0.668121
vt 0.069478 0.772794
vt 0.134502 0.673427
vt 0.104758 0.789776
vt 0.141841 0.676953
vt 0.143234 0.797053
vt 0.149842 0.678465
vt 0.182284 0.794104
vt 0.157961 0.677853
vt 0.219234 0.781146
vt 0.165646 0.675161
vt 0.251575 0.759066
vt 0.172372 0.670574
vt 0.277072 0.729372
vt 0.177677 0.664403
vt 0.294018 0.694093
vt 0.181204 0.657071
vt 0.301255 0.655638
vt 0.182713 0.649076
vt 0.298288 0.616631
vt 0.182098 0.640965
vt 0.285344 0.579720
vt 0.179406 0.633289
vt 0.263285 0.547418
vt 0.174816 0.626572
vt 0.233618 0.521921
vt 0.168643 0.621270
vt 0.198377 0.504981
vt 0.161309 0.617749
vt 0.159927 0.497718
vt 0.153305 0.616241
vt 0.120928 0.500661
vt 0.145186 0.616854
vt 0.084024 0.513597
vt 0.137499 0.619547
vn -0.402570 0.915372 0.005677
vn -0.352661 0.911858 -0.210107
vn -0.533831 0.785213 -0.313792
vn -0.575133 0.814505 -0.076176
vn -0.691184 0.599672 -0.403309
vn -0.772722 0.607286 -0.184675
vn -0.791986 0.610477 -0.008758
vn -0.571200 0.816506 0.083956
vn -0.349730 0.913372 0.208426
vn -0.798788 0.570926 0.189688
vn -0.551782 0.768465 0.324035
vn -0.758619 0.479252 0.441377
vn -0.560160 0.567991 0.602998
vn -0.384688 0.605452 0.696737
vn -0.353293 0.813812 0.461404
vn -0.222739 0.600500 0.767976
vn -0.216606 0.810073 0.544853
vn 0.007314 0.591054 0.806599
vn 0.009631 0.778495 0.627576
vn 0.011228 0.907355 0.420215
vn -0.200570 0.912872 0.355580
vn 0.012098 0.977739 0.209478
vn -0.169412 0.979957 0.104803
vn 0.012373 0.999923 0.000000
vn -0.169301 0.979983 -0.104738
vn 0.223098 0.907629 0.355580
vn 0.236582 0.804469 0.544848
vn 0.237525 0.594822 0.767964
vn 0.399544 0.595776 0.696718
vn 0.373318 0.804827 0.461397
vn 0.372224 0.904438 0.208427
vn 0.573917 0.554043 0.603039
vn 0.570532 0.754672 0.323982
vn 0.770050 0.460769 0.441266
vn 0.812630 0.551107 0.189506
vn 0.806807 0.590751 -0.008755
vn 0.591213 0.802134 0.083956
vn 0.787472 0.588036 -0.184666
vn 0.595096 0.800036 -0.076174
vn 0.705779 0.582437 -0.403290
vn 0.553081 0.771778 -0.313785
vn 0.375117 0.902852 -0.210108
vn 0.425098 0.905130 0.005677
vn 0.193498 0.975494 -0.104738
vn 0.193609 0.975465 0.104803
vn 0.213264 0.907751 -0.361257
vn 0.368508 0.802838 -0.468672
vn 0.557351 0.590875 -0.583290
vn 0.414707 0.595589 -0.687962
vn 0.227914 0.806626 -0.545353
vn 0.011247 0.908905 -0.416852
vn 0.245633 0.558081 -0.792597
vn 0.009422 0.761568 -0.648017
vn 0.005813 0.470009 -0.882643
vn -0.231709 0.563951 -0.792635
vn -0.399856 0.605638 -0.687981
vn -0.207889 0.812014 -0.545359
vn -0.542581 0.604447 -0.583310
vn -0.348536 0.811704 -0.468679
vn -0.190738 0.912750 -0.361257
vn 0.012098 0.977711 -0.209606
vn -0.838278 0.247736 -0.485713
vn -0.935341 0.248808 -0.251461
vn -0.968437 0.249259 0.000000
vn -0.935270 0.248844 0.251688
vn -0.838300 0.247635 0.485727
vn -0.684080 0.245748 0.686763
vn -0.482746 0.243272 0.841293
vn -0.248443 0.240342 0.938356
vn 0.002939 0.237367 0.971416
vn 0.254317 0.234144 0.938349
vn 0.488617 0.231299 0.841281
vn 0.689747 0.228822 0.686942
vn 0.844150 0.226924 0.485711
vn 0.941217 0.225722 0.251317
vn 0.974287 0.225313 -0.000001
vn 0.941191 0.225677 -0.251455
vn 0.844136 0.226998 -0.485703
vn 0.689816 0.228776 -0.686888
vn 0.488616 0.231300 -0.841281
vn 0.254316 0.234185 -0.938339
vn 0.002940 0.237280 -0.971437
vn -0.248342 0.240381 -0.938373
vn -0.482746 0.243272 -0.841293
vn -0.683955 0.245710 -0.686901
vn -0.793494 -0.403929 -0.455203
vn -0.884367 -0.402874 -0.235769
vn -0.915430 -0.402478 0.000000
vn -0.884350 -0.402849 0.235877
vn -0.793482 -0.403960 0.455196
vn -0.648961 -0.405758 0.643591
vn -0.460276 -0.408100 0.788416
vn -0.240577 -0.410825 0.879401
vn -0.005118 -0.413666 0.910414
vn 0.230341 -0.416641 0.879405
vn 0.450045 -0.419342 0.788424
vn 0.638539 -0.421673 0.643785
vn 0.783244 -0.423466 0.455198
vn 0.874216 -0.424586 0.235526
vn 0.905210 -0.424964 -0.000000
vn 0.874146 -0.424594 -0.235774
vn 0.783269 -0.423405 -0.455212
vn 0.638682 -0.421684 -0.643636
vn 0.450045 -0.419341 -0.788424
vn 0.230463 -0.416626 -0.879380
vn -0.005119 -0.413712 -0.910393
vn -0.240603 -0.410807 -0.879402
vn -0.460277 -0.408100 -0.788416
vn -0.648912 -0.405782 -0.643625
vn -0.104850 -0.993051 -0.053436
vn -0.115375 -0.992932 -0.027829
vn -0.119064 -0.992887 -0.000000
vn -0.115445 -0.992928 0.027674
vn -0.104726 -0.993068 0.053364
vn -0.087832 -0.993270 0.075496
vn -0.065683 -0.993547 0.092466
vn -0.039738 -0.993868 0.103185
vn -0.012303 -0.994197 0.106873
vn 0.015132 -0.994547 0.103185
vn 0.041079 -0.994868 0.092465
vn 0.063182 -0.995142 0.075497
vn 0.080169 -0.995350 0.053394
vn 0.090816 -0.995485 0.027621
vn 0.094461 -0.995529 -0.000001
vn 0.090771 -0.995483 -0.027830
vn 0.080246 -0.995342 -0.053437
vn 0.063334 -0.995143 -0.075355
vn 0.041079 -0.994868 -0.092466
vn 0.015326 -0.994549 -0.103140
vn -0.012303 -0.994209 -0.106757
vn -0.039922 -0.993865 -0.103148
vn -0.065683 -0.993547 -0.092466
vn -0.087937 -0.993272 -0.075355
vn -0.012450 -0.999923 -0.000043
vn -0.012311 -0.999924 -0.000184
vn -0.012361 -0.999924 -0.000000
vn -0.012361 -0.999924 -0.000002
vn -0.012363 -0.999924 -0.000007
vn -0.012365 -0.999924 -0.000011
vn -0.012366 -0.999924 -0.000011
vn -0.012180 -0.999926 0.000039
vn -0.012374 -0.999923 0.000088
vn -0.012567 -0.999921 0.000039
vn -0.012380 -0.999923 -0.000012
vn -0.012380 -0.999923 -0.000010
vn -0.012384 -0.999923 -0.000005
vn -0.012386 -0.999923 -0.000002
vn -0.012387 -0.999923 -0.000001
vn -0.012436 -0.999923 -0.000186
vn -0.012297 -0.999924 -0.000044
vn -0.012243 -0.999925 0.000147
vn -0.012380 -0.999923 0.000011
vn -0.012379 -0.999923 0.000012
vn -0.012374 -0.999924 0.000013
vn -0.012369 -0.999924 0.000012
vn -0.012366 -0.999924 0.000011
vn -0.012502 -0.999922 0.000147
s 1
g mushroom_platform_2
f 23/1/1 11/2/2 20/3/3 24/4/4
f 20/3/3 6/5/5 21/6/6 24/4/4
f 21/6/6 8/7/7 22/8/8 24/4/4
f 22/8/8 12/9/9 23/1/1 24/4/4
f 22/8/8 8/7/7 25/10/10 28/11/11
f 25/10/10 1/12/12 26/13/13 28/11/11
f 26/13/13 9/14/14 27/15/15 28/11/11
f 27/15/15 12/9/9 22/8/8 28/11/11
f 27/15/15 9/14/14 29/16/16 32/17/17
f 29/16/16 4/18/18 30/19/19 32/17/17
f 30/19/19 10/20/20 31/21/21 32/17/17
f 31/21/21 12/9/9 27/15/15 32/17/17
f 31/22/21 10/23/20 33/24/22 35/25/23
f 33/24/22 7/26/24 34/27/25 35/25/23
f 34/27/25 11/28/2 23/29/1 35/25/23
f 23/29/1 12/30/9 31/22/21 35/25/23
f 38/31/26 10/20/20 30/19/19 39/32/27
f 30/19/19 4/18/18 36/33/28 39/32/27
f 36/33/28 13/34/29 37/35/30 39/32/27
f 37/35/30 16/36/31 38/31/26 39/32/27
f 37/35/30 13/34/29 40/37/32 43/38/33
f 40/37/32 2/39/34 41/40/35 43/38/33
f 41/40/35 14/41/36 42/42/37 43/38/33
f 42/42/37 16/36/31 37/35/30 43/38/33
f 42/42/37 14/41/36 44/43/38 47/44/39
f 44/43/38 5/45/40 45/46/41 47/44/39
f 45/46/41 15/47/42 46/48/43 47/44/39
f 46/48/43 16/36/31 42/42/37 47/44/39
f 46/49/43 15/50/42 48/51/44 49/52/45
f 48/51/44 7/26/24 33/24/22 49/52/45
f 33/24/22 10/23/20 38/53/26 49/52/45
f 38/53/26 16/54/31 46/49/43 49/52/45
f 52/55/46 15/47/42 45/46/41 53/56/47
f 45/46/41 5/45/40 50/57/48 53/56/47
f 50/57/48 17/58/49 51/59/50 53/56/47
f 51/59/50 19/60/51 52/55/46 53/56/47
f 51/59/50 17/58/49 54/61/52 57/62/53
f 54/61/52 3/63/54 55/64/55 57/62/53
f 55/64/55 18/65/56 56/66/57 57/62/53
f 56/66/57 19/60/51 51/59/50 57/62/53
f 56/66/57 18/65/56 58/67/58 60/68/59
f 58/67/58 6/5/5 20/3/3 60/68/59
f 20/3/3 11/2/2 59/69/60 60/68/59
f 59/69/60 19/60/51 56/66/57 60/68/59
f 59/70/60 11/28/2 34/27/25 61/71/61
f 34/27/25 7/26/24 48/51/44 61/71/61
f 48/51/44 15/50/42 52/72/46 61/71/61
f 52/72/46 19/73/51 59/70/60 61/71/61
f 21/6/6 6/5/5 62/74/62 63/75/63
f 8/7/7 21/6/6 63/75/63 64/76/64
f 25/10/10 8/7/7 64/76/64 65/77/65
f 1/12/12 25/10/10 65/77/65 66/78/66
f 26/13/13 1/12/12 66/78/66 67/79/67
f 9/14/14 26/13/13 67/79/67 68/80/68
f 29/16/16 9/14/14 68/80/68 69/81/69
f 4/18/18 29/16/16 69/81/69 70/82/70
f 36/33/28 4/18/18 70/82/70 71/83/71
f 13/34/29 36/33/28 71/83/71 72/84/72
f 40/37/32 13/34/29 72/84/72 73/85/73
f 2/39/34 40/37/32 73/85/73 74/86/74
f 41/40/35 2/39/34 74/86/74 75/87/75
f 14/41/36 41/40/35 75/87/75 76/88/76
f 44/43/38 14/41/36 76/88/76 77/89/77
f 5/45/40 44/43/38 77/89/77 78/90/78
f 50/57/48 5/45/40 78/90/78 79/91/79
f 17/58/49 50/57/48 79/91/79 80/92/80
f 54/61/52 17/58/49 80/92/80 81/93/81
f 3/63/54 54/61/52 81/93/81 82/94/82
f 55/64/55 3/63/54 82/94/82 83/95/83
f 18/65/56 55/64/55 83/95/83 84/96/84
f 58/67/58 18/65/56 84/96/84 85/97/85
f 6/5/5 58/67/58 85/97/85 62/74/62
f 63/75/63 62/74/62 86/98/86 87/99/87
f 64/76/64 63/75/63 87/99/87 88/100/88
f 65/77/65 64/76/64 88/100/88 89/101/89
f 66/78/66 65/77/65 89/101/89 90/102/90
f 67/79/67 66/78/66 90/102/90 91/103/91
f 68/80/68 67/79/67 91/103/91 92/104/92
f 69/81/69 68/80/68 92/104/92 93/105/93
f 70/82/70 69/81/69 93/105/93 94/106/94
f 71/83/71 70/82/70 94/106/94 95/107/95
f 72/84/72 71/83/71 95/107/95 96/108/96
f 73/85/73 72/84/72 96/108/96 97/109/97
f 74/86/74 73/85/73 97/109/97 98/110/98
f 75/87/75 74/86/74 98/110/98 99/111/99
f 76/88/76 75/87/75 99/111/99 100/112/100
f 77/89/77 76/88/76 100/112/100 101/113/101
f 78/90/78 77/89/77 101/113/101 102/114/102
f 79/91/79 78/90/78 102/114/102 103/115/103
f 80/92/80 79/91/79 103/115/103 104/116/104
f 81/93/81 80/92/80 104/116/104 105/117/105
f 82/94/82 81/93/81 105/117/105 106/118/106
f 83/95/83 82/94/82 106/118/106 107/119/107
f 84/96/84 83/95/83 107/119/107 108/120/108
f 85/97/85 84/96/84 108/120/108 109/121/109
f 62/74/62 85/97/85 109/121/109 86/98/86
f 87/99/87 86/98/86 110/122/110 111/123/111
f 88/100/88 87/99/87 111/123/111 112/124/112
f 89/101/89 88/100/88 112/124/112 113/125/113
f 90/102/90 89/101/89 113/125/113 114/126/114
f 91/103/91 90/102/90 114/126/114 115/127/115
f 92/104/92 91/103/91 115/127/115 116/128/116
f 93/105/93 92/104/92 116/128/116 117/129/117
f 94/106/94 93/105/93 117/129/117 118/130/118
f 95/107/95 94/106/94 118/130/118 119/131/119
f 96/108/96 95/107/95 119/131/119 120/132/120
f 97/109/97 96/108/96 120/132/120 121/133/121
f 98/110/98 97/109/97 121/133/121 122/134/122
f 99/111/99 98/110/98 122/134/122 123/135/123
f 100/112/100 99/111/99 123/135/123 124/136/124
f 101/113/101 100/112/100 124/136/124 125/137/125
f 102/114/102 101/113/101 125/137/125 126/138/126
f 103/115/103 102/114/102 126/138/126 127/139/127
f 104/116/104 103/115/103 127/139/127 128/140/128
f 105/117/105 104/116/104 128/140/128 129/141/129
f 106/118/106 105/117/105 129/141/129 130/142/130
f 107/119/107 106/118/106 130/142/130 131/143/131
f 108/120/108 107/119/107 131/143/131 132/144/132
f 109/121/109 108/120/108 132/144/132 133/145/133
f 86/98/86 109/121/109 133/145/133 110/122/110
f 111/146/111 110/147/110 134/148/134 135/149/135
f 112/150/112 111/146/111 135/149/135 136/151/136
f 113/152/113 112/150/112 136/151/136 137/153/137
f 114/154/114 113/152/113 137/153/137 138/155/138
f 115/156/115 114/154/114 138/155/138 139/157/139
f 116/158/116 115/156/115 139/157/139 140/159/140
f 117/160/117 116/158/116 140/159/140 141/161/141
f 118/162/118 117/160/117 141/161/141 142/163/142
f 119/164/119 118/162/118 142/163/142 143/165/143
f 120/166/120 119/164/119 143/165/143 144/167/144
f 121/168/121 120/166/120 144/167/144 145/169/145
f 122/170/122 121/168/121 145/169/145 146/171/146
f 123/172/123 122/170/122 146/171/146 147/173/147
f 124/174/124 123/172/123 147/173/147 148/175/148
f 125/176/125 124/174/124 148/175/148 149/177/149
f 126/178/126 125/176/125 149/177/149 150/179/150
f 127/180/127 126/178/126 150/179/150 151/181/151
f 128/182/128 127/180/127 151/181/151 152/183/152
f 129/184/129 128/182/128 152/183/152 153/185/153
f 130/186/130 129/184/129 153/185/153 154/187/154
f 131/188/131 130/186/130 154/187/154 155/189/155
f 132/190/132 131/188/131 155/189/155 156/191/156
f 133/192/133 132/190/132 156/191/156 157/193/157
f 110/147/110 133/192/133 157/193/157 134/148/134
