# This file uses centimeters as units for non-parametric coordinates.

mtllib TVflat.mtl
g default
v -0.003559 0.000000 0.096827
v -0.003559 0.003558 0.100385
v -0.007116 0.003558 0.096827
v 0.007116 0.015641 0.089709
v 0.003559 0.003558 0.100385
v 0.003559 0.000000 0.096827
v -0.007116 0.332281 0.096827
v -0.003559 0.332281 0.100385
v -0.003559 0.335839 0.096827
v 0.003559 0.335839 0.096827
v 0.003559 0.332281 0.100385
v 0.007116 0.320198 0.089709
v -0.007116 0.332281 -0.096827
v -0.003559 0.335839 -0.096827
v -0.003559 0.332281 -0.100385
v 0.003559 0.332281 -0.100385
v 0.003559 0.335839 -0.096827
v 0.007116 0.320198 -0.089709
v -0.007116 0.003558 -0.096827
v -0.003559 0.003558 -0.100385
v -0.003559 0.000000 -0.096827
v 0.003559 0.000000 -0.096827
v 0.003559 0.003558 -0.100385
v 0.007116 0.015641 -0.089709
v -0.004656 0.015641 -0.089709
v -0.004656 0.015641 0.089709
v -0.004656 0.320198 -0.089709
v -0.004656 0.320198 0.089709
vt 0.379345 0.040698
vt 0.368567 0.012640
vt 0.697965 0.018131
vt 0.683547 0.045179
vt 0.360697 0.016679
vt 0.702548 0.023436
vt 0.376924 0.515827
vt 0.357676 0.537461
vt 0.705545 0.530188
vt 0.686335 0.510196
vt 0.362966 0.543325
vt 0.698303 0.537225
vt 0.718386 0.000001
vt 1.000000 0.000001
vt 1.000000 0.478033
vt 0.718386 0.478033
vt 0.008837 0.011148
vt 0.339910 0.016957
vt 0.337279 0.540239
vt 0.008538 0.554827
vt 0.339914 0.008408
vt 0.008757 0.002601
vt 0.348418 0.015934
vt 0.345647 0.538238
vt 0.341118 0.547652
vt 0.012286 0.562721
vt 0.000000 0.554933
vt 0.000268 0.011115
vt 0.344673 0.559133
vt 0.016000 0.574413
vt 0.350535 0.546602
vt 0.352361 0.558999
vt 0.004078 0.566073
vt 0.008213 0.577331
vt 0.697671 0.005940
vt 0.368404 0.000488
vt 0.705230 0.005270
vt 0.707121 0.015810
vt 0.359907 0.000000
vt 0.360113 0.011154
vt 0.669810 0.052778
vt 0.404799 0.059181
vt 0.394044 0.486923
vt 0.667664 0.493494
vt 0.717658 0.528939
vt 0.714609 0.022139
vt 0.666732 0.485429
vt 0.671793 0.057275
vt 0.397762 0.058277
vt 0.393740 0.484244
vn -0.313868 -0.949373 0.013375
vn -0.999784 -0.010578 0.017910
vn -0.999784 -0.010578 -0.017910
vn -0.313868 -0.949373 -0.013375
vn -0.314821 -0.007923 0.949118
vn 0.753556 -0.657300 0.010484
vn 0.494627 -0.009527 0.869053
vn -0.314821 0.007923 0.949118
vn -0.999784 0.010578 0.017910
vn 0.977449 -0.092938 0.189619
vn 0.753556 -0.657300 -0.010484
vn 0.977449 -0.092938 -0.189619
vn 0.977449 0.092938 0.189619
vn 0.494627 0.009527 0.869053
vn -0.313869 0.949372 0.013375
vn -0.313869 0.949372 -0.013375
vn -0.999784 0.010578 -0.017910
vn 0.753556 0.657300 0.010484
vn 0.977449 0.092938 -0.189619
vn 0.753557 0.657299 -0.010484
vn -0.314821 0.007923 -0.949118
vn -0.314821 -0.007923 -0.949118
vn 0.494626 0.009527 -0.869054
vn 0.494626 -0.009527 -0.869054
vn 1.000000 0.000000 0.000000
vn 1.000000 0.000000 0.000000
vn 1.000000 0.000000 0.000000
vn 1.000000 0.000000 0.000000
vn 0.000000 0.507581 -0.861604
vn 0.000000 0.507581 0.861604
vn 0.000000 0.507581 0.861604
vn 0.000000 0.507581 -0.861604
vn 0.000000 -0.507581 0.861604
vn 0.000000 -0.507581 0.861604
vn 0.000000 -0.507581 -0.861604
vn 0.000000 -0.507581 -0.861604
s 1
g TVflat
usemtl lambert1SG
f 1/21/1 3/18/2 19/17/3 21/22/4
f 2/39/5 1/36/1 6/2/6 5/40/7
f 3/18/2 2/23/5 8/24/8 7/19/9
f 4/1/10 6/2/6 22/3/11 24/4/12
f 5/5/7 4/1/10 12/7/13 11/8/14
f 7/19/9 9/25/15 14/26/16 13/20/17
f 9/25/15 8/31/8 11/32/14 10/29/18
f 10/11/18 12/7/13 18/10/19 17/12/20
f 13/20/17 15/27/21 20/28/22 19/17/3
f 15/33/21 14/26/16 17/30/20 16/34/23
f 16/9/23 18/10/19 24/4/12 23/6/24
f 21/35/4 20/37/22 23/38/24 22/3/11
f 2/23/5 5/5/7 11/8/14 8/24/8
f 9/25/15 10/29/18 17/30/20 14/26/16
f 15/45/21 16/9/23 23/6/24 20/46/22
f 21/35/4 22/3/11 6/2/6 1/36/1
s off
f 26/13/25 25/14/26 27/15/27 28/16/28
s 1
f 19/17/3 3/18/2 7/19/9 13/20/17
f 1/21/1 2/23/5 3/18/2
f 4/1/10 5/5/7 6/2/6
f 7/19/9 8/24/8 9/25/15
f 10/11/18 11/8/14 12/7/13
f 13/20/17 14/26/16 15/27/21
f 16/9/23 17/12/20 18/10/19
f 19/17/3 20/28/22 21/22/4
f 22/3/11 23/6/24 24/4/12
s 2
f 4/1/29 24/4/30 25/41/31 26/42/32
f 24/4/30 18/10/33 27/47/34 25/48/31
f 18/10/33 12/7/35 28/43/36 27/44/34
f 12/7/35 4/1/29 26/49/32 28/50/36
