# This file uses centimeters as units for non-parametric coordinates.

mtllib rock 3.mtl
g default
v 0.255280 0.407337 -1.334412
v 0.880638 0.929230 -0.640564
v -0.270035 1.123222 -0.545044
v -0.818329 0.495184 -0.446594
v -0.288589 0.000000 -0.669250
v 0.943001 0.055085 -0.616577
v 0.699097 0.697056 0.770874
v -0.135574 1.445229 0.466736
v -0.967896 0.664295 0.803345
v -0.908447 0.056681 0.773865
v 0.249664 0.140764 1.096008
v -0.430542 0.900291 1.212524
v -0.218567 1.371517 -0.048035
v 0.433334 1.294060 -0.093201
v -0.994461 0.551825 0.232361
v -0.706055 0.946148 0.153137
v -0.678619 -0.032894 0.069946
v -0.987228 0.213042 0.166992
v 0.687111 0.029240 0.279297
v -0.009491 -0.021538 0.237671
v 0.910721 0.831938 0.051819
v 0.975639 0.319910 0.120789
v 0.321030 1.165867 0.667908
v -0.630753 1.136948 0.704956
v -1.055969 0.309003 0.887390
v -0.378998 0.057216 1.040344
v 0.565964 0.387900 1.076111
v -0.327469 1.258110 0.933655
v 0.150543 0.871626 1.129272
v -0.802261 0.804085 1.108337
v -0.738968 0.440128 1.147583
v -0.082932 0.517160 1.334412
v 0.014633 0.802940 -1.069702
v 0.350250 1.119289 -0.707031
v 0.679619 0.659809 -1.133972
v -0.328827 0.472410 -1.037109
v -0.602737 0.831078 -0.556091
v -0.020844 0.150835 -1.184753
v -0.638626 0.215990 -0.678528
v 0.688461 0.172956 -1.169678
v 0.379700 -0.044844 -0.753052
v 1.066429 0.454166 -0.733765
v 0.379166 0.874128 -1.032166
v -0.320724 0.720976 -0.947388
v -0.352463 0.274330 -1.036743
v 0.364197 0.052290 -1.134827
v 0.881760 0.411314 -1.085205
v 0.204544 1.328705 -0.321045
v -0.807877 0.788471 -0.056335
v -0.824448 0.114705 -0.188721
v 0.382172 -0.040469 -0.094543
v 1.058876 0.519470 -0.215820
v 0.595078 1.130020 0.233704
v -0.555008 1.176979 0.295105
v -1.066437 0.322004 0.477051
v -0.378983 -0.044123 0.491943
v 0.804451 0.207490 0.549561
v 0.041183 1.149124 0.939880
v -0.623077 1.108467 0.961548
v -0.920441 0.494265 1.098511
v -0.415329 0.334010 1.247803
v 0.233780 0.601791 1.269104
vt 0.075203 0.207993
vt 0.167568 0.215965
vt 0.140693 0.280273
vt 0.084976 0.315541
vt 0.274753 0.234149
vt 0.197331 0.310235
vt 0.154224 0.395586
vt 0.192943 0.126729
vt 0.215467 0.167403
vt 0.350645 0.111515
vt 0.306107 0.169049
vt 0.097385 0.118540
vt 0.190644 0.095961
vt 0.927193 0.345407
vt 0.290882 0.068602
vt 0.000011 0.310813
vt 0.859464 0.472752
vt 0.037659 0.510932
vt 0.826852 0.411144
vt 0.049060 0.357410
vt 0.086364 0.438121
vt 0.265321 0.327843
vt 0.272612 0.381561
vt 0.333958 0.295567
vt 0.387909 0.350369
vt 0.400695 0.179890
vt 0.415940 0.219838
vt 0.478042 0.167548
vt 0.539659 0.253199
vt 0.421688 0.063764
vt 0.494083 0.110978
vt 0.930486 0.196290
vt 0.643600 0.207330
vt 0.774434 0.306909
vt 0.810185 0.222904
vt 0.266417 0.667025
vt 0.542846 0.586301
vt 0.170736 0.505777
vt 0.227842 0.575856
vt 0.240284 0.487483
vt 0.374594 0.533412
vt 0.300498 0.439756
vt 0.382749 0.438460
vt 0.410466 0.271220
vt 0.466424 0.302340
vt 0.542387 0.174864
vt 0.596116 0.237672
vt 0.849206 0.153281
vt 0.673009 0.411969
vt 0.321513 0.611649
vt 0.455288 0.560531
vt 0.441999 0.420805
vt 0.474345 0.465420
vt 0.461845 0.364928
vt 0.529375 0.383152
vt 0.494828 0.332373
vt 0.546645 0.317795
vt 0.584789 0.294315
vt 0.603970 0.329459
vt 0.609674 0.402755
vt 0.554967 0.465558
vt 0.503414 0.503296
vt 0.804145 0.064975
vt 0.910395 0.064212
vt 0.698264 0.105459
vt 0.695276 0.271611
vt 0.725221 0.435574
vt 0.485649 0.026105
vt 0.245380 0.000029
vt 0.808711 0.509092
vt 0.006227 0.204604
vt 0.928477 0.453015
vn -0.029849 0.099109 -0.994629
vn -0.235928 0.622236 -0.746432
vn 0.102367 0.727259 -0.678686
vn 0.427947 0.493342 -0.757281
vn -0.407064 0.788599 -0.460879
vn 0.131905 0.864156 -0.485630
vn 0.102367 0.727259 -0.678686
vn -0.235928 0.622236 -0.746432
vn 0.700645 0.670359 -0.244367
vn 0.427947 0.493342 -0.757281
vn 0.102367 0.727259 -0.678686
vn 0.131905 0.864156 -0.485630
vn -0.029849 0.099109 -0.994629
vn -0.598117 0.185470 -0.779652
vn -0.559173 0.458825 -0.690511
vn -0.235928 0.622236 -0.746432
vn -0.896427 0.126246 -0.424829
vn -0.704110 0.553384 -0.444966
vn -0.559173 0.458825 -0.690511
vn -0.598117 0.185470 -0.779652
vn -0.407064 0.788599 -0.460879
vn -0.235928 0.622236 -0.746432
vn -0.559173 0.458825 -0.690511
vn -0.704110 0.553384 -0.444966
vn -0.029849 0.099109 -0.994629
vn -0.279525 -0.691191 -0.666424
vn -0.610869 -0.371798 -0.699003
vn -0.598117 0.185470 -0.779652
vn -0.197314 -0.962170 -0.187871
vn -0.700588 -0.510730 -0.498328
vn -0.610869 -0.371798 -0.699003
vn -0.279525 -0.691191 -0.666424
vn -0.896427 0.126246 -0.424829
vn -0.598117 0.185470 -0.779652
vn -0.610869 -0.371798 -0.699003
vn -0.700588 -0.510730 -0.498328
vn -0.029849 0.099109 -0.994629
vn 0.449402 -0.567405 -0.689992
vn 0.044572 -0.858731 -0.510485
vn -0.279525 -0.691191 -0.666424
vn 0.595434 -0.799129 -0.082777
vn 0.052169 -0.991502 -0.119177
vn 0.044572 -0.858731 -0.510485
vn 0.449402 -0.567405 -0.689992
vn -0.197314 -0.962170 -0.187871
vn -0.279525 -0.691191 -0.666424
vn 0.044572 -0.858731 -0.510485
vn 0.052169 -0.991502 -0.119177
vn -0.029849 0.099109 -0.994629
vn 0.427947 0.493342 -0.757281
vn 0.750563 0.021601 -0.660446
vn 0.449402 -0.567405 -0.689992
vn 0.700645 0.670359 -0.244367
vn 0.969870 0.052606 -0.237874
vn 0.750563 0.021601 -0.660446
vn 0.427947 0.493342 -0.757281
vn 0.595434 -0.799129 -0.082777
vn 0.449402 -0.567405 -0.689992
vn 0.750563 0.021601 -0.660446
vn 0.969870 0.052606 -0.237874
vn 0.700645 0.670359 -0.244367
vn 0.131905 0.864156 -0.485630
vn 0.090071 0.943100 -0.320079
vn 0.449657 0.892949 -0.021205
vn -0.407064 0.788599 -0.460879
vn -0.335856 0.912290 -0.234365
vn 0.090071 0.943100 -0.320079
vn 0.131905 0.864156 -0.485630
vn 0.006131 0.989559 0.144000
vn 0.449657 0.892949 -0.021205
vn 0.090071 0.943100 -0.320079
vn -0.335856 0.912290 -0.234365
vn -0.407064 0.788599 -0.460879
vn -0.704110 0.553384 -0.444966
vn -0.787540 0.579331 -0.210135
vn -0.754250 0.636439 -0.161409
vn -0.896427 0.126246 -0.424829
vn -0.928417 0.337249 -0.155904
vn -0.787540 0.579331 -0.210135
vn -0.704110 0.553384 -0.444966
vn -0.889078 0.453408 0.062942
vn -0.754250 0.636439 -0.161409
vn -0.787540 0.579331 -0.210135
vn -0.928417 0.337249 -0.155904
vn -0.896427 0.126246 -0.424829
vn -0.700588 -0.510730 -0.498328
vn -0.710002 -0.629753 -0.315132
vn -0.885236 -0.420203 -0.199466
vn -0.197314 -0.962170 -0.187871
vn -0.231244 -0.970770 -0.064279
vn -0.710002 -0.629753 -0.315132
vn -0.700588 -0.510730 -0.498328
vn -0.421882 -0.869941 0.255377
vn -0.885236 -0.420203 -0.199466
vn -0.710002 -0.629753 -0.315132
vn -0.231244 -0.970770 -0.064279
vn -0.197314 -0.962170 -0.187871
vn 0.052169 -0.991502 -0.119177
vn 0.057825 -0.997275 0.045819
vn 0.040935 -0.996684 0.070321
vn 0.595434 -0.799129 -0.082777
vn 0.347586 -0.920796 0.176973
vn 0.057825 -0.997275 0.045819
vn 0.052169 -0.991502 -0.119177
vn 0.224357 -0.845219 0.485045
vn 0.040935 -0.996684 0.070321
vn 0.057825 -0.997275 0.045819
vn 0.347586 -0.920796 0.176973
vn 0.595434 -0.799129 -0.082777
vn 0.969870 0.052606 -0.237874
vn 0.991042 0.091330 0.097440
vn 0.937483 -0.238197 0.253746
vn 0.700645 0.670359 -0.244367
vn 0.849586 0.488847 0.198072
vn 0.991042 0.091330 0.097440
vn 0.969870 0.052606 -0.237874
vn 0.806951 0.370341 0.460084
vn 0.937483 -0.238197 0.253746
vn 0.991042 0.091330 0.097440
vn 0.849586 0.488847 0.198072
vn 0.700645 0.670359 -0.244367
vn 0.449657 0.892949 -0.021205
vn 0.631236 0.742058 0.225591
vn 0.849586 0.488847 0.198072
vn 0.006131 0.989559 0.144000
vn 0.533726 0.749736 0.391194
vn 0.631236 0.742058 0.225591
vn 0.449657 0.892949 -0.021205
vn 0.806951 0.370341 0.460084
vn 0.849586 0.488847 0.198072
vn 0.631236 0.742058 0.225591
vn 0.533726 0.749736 0.391194
vn -0.407064 0.788599 -0.460879
vn -0.754250 0.636439 -0.161409
vn -0.680627 0.721101 -0.129458
vn -0.335856 0.912290 -0.234365
vn -0.889078 0.453408 0.062942
vn -0.688261 0.725150 0.021303
vn -0.680627 0.721101 -0.129458
vn -0.754250 0.636439 -0.161409
vn 0.006131 0.989559 0.144000
vn -0.335856 0.912290 -0.234365
vn -0.680627 0.721101 -0.129458
vn -0.688261 0.725150 0.021303
vn -0.896427 0.126246 -0.424829
vn -0.885236 -0.420203 -0.199466
vn -0.994470 -0.089379 -0.055153
vn -0.928417 0.337249 -0.155904
vn -0.421882 -0.869941 0.255377
vn -0.922895 -0.193549 0.332872
vn -0.994470 -0.089379 -0.055153
vn -0.885236 -0.420203 -0.199466
vn -0.889078 0.453408 0.062942
vn -0.928417 0.337249 -0.155904
vn -0.994470 -0.089379 -0.055153
vn -0.922895 -0.193549 0.332872
vn -0.197314 -0.962170 -0.187871
vn 0.040935 -0.996684 0.070321
vn 0.015888 -0.995546 0.092931
vn -0.231244 -0.970770 -0.064279
vn 0.224357 -0.845219 0.485045
vn -0.052716 -0.890772 0.451383
vn 0.015888 -0.995546 0.092931
vn 0.040935 -0.996684 0.070321
vn -0.421882 -0.869941 0.255377
vn -0.231244 -0.970770 -0.064279
vn 0.015888 -0.995546 0.092931
vn -0.052716 -0.890772 0.451383
vn 0.595434 -0.799129 -0.082777
vn 0.937483 -0.238197 0.253746
vn 0.800530 -0.445273 0.401103
vn 0.347586 -0.920796 0.176973
vn 0.806951 0.370341 0.460084
vn 0.704611 -0.221072 0.674278
vn 0.800530 -0.445273 0.401103
vn 0.937483 -0.238197 0.253746
vn 0.224357 -0.845219 0.485045
vn 0.347586 -0.920796 0.176973
vn 0.800530 -0.445273 0.401103
vn 0.704611 -0.221072 0.674278
vn 0.806951 0.370341 0.460084
vn 0.533726 0.749736 0.391194
vn 0.344343 0.712047 0.611896
vn 0.391764 0.539709 0.745141
vn 0.006131 0.989559 0.144000
vn -0.063386 0.841904 0.535892
vn 0.344343 0.712047 0.611896
vn 0.533726 0.749736 0.391194
vn -0.121441 0.402523 0.907319
vn 0.391764 0.539709 0.745141
vn 0.344343 0.712047 0.611896
vn -0.063386 0.841904 0.535892
vn 0.006131 0.989559 0.144000
vn -0.688261 0.725150 0.021303
vn -0.566865 0.721539 0.397548
vn -0.063386 0.841904 0.535892
vn -0.889078 0.453408 0.062942
vn -0.648078 0.437845 0.623127
vn -0.566865 0.721539 0.397548
vn -0.688261 0.725150 0.021303
vn -0.121441 0.402523 0.907319
vn -0.063386 0.841904 0.535892
vn -0.566865 0.721539 0.397548
vn -0.648078 0.437845 0.623127
vn -0.889078 0.453408 0.062942
vn -0.922895 -0.193549 0.332872
vn -0.667268 -0.039460 0.743771
vn -0.648078 0.437845 0.623127
vn -0.421882 -0.869941 0.255377
vn -0.350725 -0.283406 0.892566
vn -0.667268 -0.039460 0.743771
vn -0.922895 -0.193549 0.332872
vn -0.121441 0.402523 0.907319
vn -0.648078 0.437845 0.623127
vn -0.667268 -0.039460 0.743771
vn -0.350725 -0.283406 0.892566
vn -0.421882 -0.869941 0.255377
vn -0.052716 -0.890772 0.451383
vn -0.212995 -0.355673 0.910017
vn -0.350725 -0.283406 0.892566
vn 0.224357 -0.845219 0.485045
vn 0.032545 -0.096797 0.994772
vn -0.212995 -0.355673 0.910017
vn -0.052716 -0.890772 0.451383
vn -0.121441 0.402523 0.907319
vn -0.350725 -0.283406 0.892566
vn -0.212995 -0.355673 0.910017
vn 0.032545 -0.096797 0.994772
vn 0.224357 -0.845219 0.485045
vn 0.704611 -0.221072 0.674278
vn 0.408732 0.186341 0.893429
vn 0.032545 -0.096797 0.994772
vn 0.806951 0.370341 0.460084
vn 0.391764 0.539709 0.745141
vn 0.408732 0.186341 0.893429
vn 0.704611 -0.221072 0.674278
vn -0.121441 0.402523 0.907319
vn 0.032545 -0.096797 0.994772
vn 0.408732 0.186341 0.893429
vn 0.391764 0.539709 0.745141
s off
g rock_3:sRock1_Geo
usemtl initialShadingGroup
f 1/1/1 33/2/2 43/3/3 35/4/4
f 3/5/5 34/6/6 43/3/7 33/2/8
f 2/7/9 35/4/10 43/3/11 34/6/12
f 1/1/13 36/8/14 44/9/15 33/2/16
f 4/10/17 37/11/18 44/9/19 36/8/20
f 3/5/21 33/2/22 44/9/23 37/11/24
f 1/1/25 38/12/26 45/13/27 36/8/28
f 5/69/29 39/15/30 45/13/31 38/12/32
f 4/10/33 36/8/34 45/13/35 39/15/36
f 1/1/37 40/16/38 46/71/39 38/12/40
f 6/67/41 41/19/42 46/17/43 40/70/44
f 5/14/45 38/72/46 46/17/47 41/19/48
f 1/1/49 35/4/50 47/20/51 40/16/52
f 2/7/53 42/21/54 47/20/55 35/4/56
f 6/18/57 40/16/58 47/20/59 42/21/60
f 2/7/61 34/6/62 48/22/63 14/23/64
f 3/5/65 13/24/66 48/22/67 34/6/68
f 8/25/69 14/23/70 48/22/71 13/24/72
f 3/5/73 37/11/74 49/26/75 16/27/76
f 4/10/77 15/28/78 49/26/79 37/11/80
f 9/29/81 16/27/82 49/26/83 15/28/84
f 4/10/85 39/15/86 50/30/87 18/31/88
f 5/69/89 17/68/90 50/30/91 39/15/92
f 10/33/93 18/31/94 50/30/95 17/68/96
f 5/14/97 41/19/98 51/34/99 20/35/100
f 6/67/101 19/66/102 51/34/103 41/19/104
f 11/65/105 20/35/106 51/34/107 19/66/108
f 6/18/109 42/21/110 52/38/111 22/39/112
f 2/7/113 21/40/114 52/38/115 42/21/116
f 7/41/117 22/39/118 52/38/119 21/40/120
f 2/7/121 14/23/122 53/42/123 21/40/124
f 8/25/125 23/43/126 53/42/127 14/23/128
f 7/41/129 21/40/130 53/42/131 23/43/132
f 3/5/133 16/27/134 54/44/135 13/24/136
f 9/29/137 24/45/138 54/44/139 16/27/140
f 8/25/141 13/24/142 54/44/143 24/45/144
f 4/10/145 18/31/146 55/46/147 15/28/148
f 10/33/149 25/47/150 55/46/151 18/31/152
f 9/29/153 15/28/154 55/46/155 25/47/156
f 5/14/157 20/35/158 56/48/159 17/32/160
f 11/65/161 26/63/162 56/48/163 20/35/164
f 10/64/165 17/32/166 56/48/167 26/63/168
f 6/18/169 22/39/170 57/50/171 19/36/172
f 7/41/173 27/51/174 57/50/175 22/39/176
f 11/37/177 19/36/178 57/50/179 27/51/180
f 7/41/181 23/43/182 58/52/183 29/53/184
f 8/25/185 28/54/186 58/52/187 23/43/188
f 12/55/189 29/53/190 58/52/191 28/54/192
f 8/25/193 24/45/194 59/56/195 28/54/196
f 9/29/197 30/57/198 59/56/199 24/45/200
f 12/55/201 28/54/202 59/56/203 30/57/204
f 9/29/205 25/47/206 60/58/207 30/57/208
f 10/33/209 31/59/210 60/58/211 25/47/212
f 12/55/213 30/57/214 60/58/215 31/59/216
f 10/33/217 26/49/218 61/60/219 31/59/220
f 11/37/221 32/61/222 61/60/223 26/49/224
f 12/55/225 31/59/226 61/60/227 32/61/228
f 11/37/229 27/51/230 62/62/231 32/61/232
f 7/41/233 29/53/234 62/62/235 27/51/236
f 12/55/237 32/61/238 62/62/239 29/53/240
