# This file uses centimeters as units for non-parametric coordinates.

mtllib stalactite flat.mtl
g default
v 0.142349 1.415236 -0.443147
v 1.697022 1.283462 -0.291523
v 0.284513 2.342259 0.028813
v -1.360840 1.537259 -0.024189
v -1.604732 0.257399 -0.614380
v 1.620906 0.329371 -0.314531
v 1.769340 0.109053 0.491868
v 1.653226 1.530010 0.819890
v -1.240655 1.613832 0.601978
v -1.513106 0.605829 0.584677
v 0.301310 0.445615 0.279442
v 0.362652 0.724173 0.730632
v 1.658536 1.279861 -0.372927
v -1.257492 1.684185 -0.396448
v -0.615711 1.066331 -0.518623
v -1.468296 1.167701 -0.341432
v -1.390992 1.321983 -0.398890
v 0.928417 0.677074 -0.434637
v -0.098908 0.785027 -0.470753
v 0.077160 1.015377 -0.502843
v 1.648969 0.651926 -0.215559
v 1.642146 0.851363 -0.319317
v 1.725325 1.640689 0.273095
v -1.292505 1.923020 0.598020
v -1.792893 0.136798 -0.273095
v -1.424597 1.231009 0.105146
v -1.522768 0.883504 -0.080508
v 0.722417 0.425012 -0.167617
v -0.599333 0.436687 -0.137115
v 0.112127 0.596055 -0.335964
v 1.770021 0.744860 0.293083
v 1.621416 0.170360 0.101594
v 1.679093 0.556660 0.004987
v 1.812740 0.347468 0.589612
v 1.727427 1.212330 0.401216
v 0.366418 1.820025 0.686715
v -1.362550 1.381275 0.617339
v -1.389511 1.337251 0.435365
v -1.777009 0.000000 0.445060
v -1.793980 0.062473 0.101269
v 0.910833 0.262927 0.395707
v 1.083143 0.270972 0.044282
v 0.980101 1.087281 0.709390
v 1.212326 0.368562 0.713960
v 1.384064 0.684787 0.671173
v -0.489010 1.077235 0.703350
v 0.246288 1.264612 0.691609
v -1.205001 0.819139 0.698865
v -1.049396 1.176590 0.556465
v 0.339081 0.555498 0.774362
v -0.866991 0.507236 0.669427
v 0.920072 0.388379 0.607409
v 0.216963 2.330313 -0.185819
v 0.204992 2.312993 -0.227781
v 0.200791 2.273013 -0.251260
v 1.696570 2.233528 -0.285313
v 1.690661 2.277424 -0.263680
v 1.649431 2.298882 -0.221281
v 1.744321 2.263320 0.255651
v 1.726893 2.304013 0.274786
v 1.682556 2.322004 0.276464
v -1.116476 2.284108 -0.290304
v -1.157448 2.264912 -0.334948
v -1.178494 2.222956 -0.355026
v -1.125564 2.301778 0.071108
v -1.169712 2.284097 0.072288
v -1.190924 2.243599 0.083698
v 1.775306 2.245508 0.734209
v 1.746397 2.286303 0.729999
v 1.702039 2.308612 0.675259
v 0.867239 2.277459 0.618549
v 0.835416 2.310981 0.590765
v 0.828790 2.325332 0.540575
v -1.197142 2.300694 0.486937
v -1.246987 2.281541 0.538065
v -1.273549 2.240059 0.561517
v -0.562642 2.349762 0.436830
v -0.637244 2.329175 0.466750
v -0.706967 2.270347 0.483511
v 0.230117 2.330708 0.472043
v 0.225758 2.315495 0.514399
v 0.222754 2.278038 0.539513
vt 0.788429 0.665959
vt 0.282596 0.586116
vt 0.158586 0.647839
vt 0.029398 0.604575
vt 0.023706 0.790643
vt 0.807999 0.576169
vt 0.853070 0.644630
vt 0.414751 0.704704
vt 0.272956 0.652772
vt 0.530751 0.761131
vt 0.280302 0.754411
vt 0.533279 0.603299
vt 0.851199 0.366777
vt 0.779613 0.367068
vt 0.882316 0.346857
vt 0.879680 0.595376
vt 0.855204 0.532694
vt 0.000000 0.852387
vt 0.037939 0.104903
vt 0.204256 0.836519
vt 0.320236 0.785819
vt 0.426171 0.803901
vt 0.362645 0.887292
vt 0.583444 0.837042
vt 0.894740 0.308929
vt 0.858800 0.262366
vt 0.596099 0.074906
vt 0.711497 0.280725
vt 0.779912 0.252366
vt 0.720295 0.188539
vt 0.595433 0.117947
vt 0.948258 0.719436
vt 0.931865 0.619520
vt 0.052054 0.236684
vt 0.069519 0.277699
vt 0.008096 0.913554
vt 0.018315 0.969182
vt 0.492838 0.835052
vt 0.470664 0.894045
vt 0.495363 0.111133
vt 0.518428 0.165857
vt 0.444042 0.224284
vt 0.348513 0.153153
vt 0.331044 0.333850
vt 0.320396 0.240708
vt 0.202480 0.198887
vt 0.106643 0.208905
vt 0.088179 0.145113
vt 0.190515 1.000000
vt 0.382568 0.970239
vt 0.471342 0.933577
vt 0.290385 0.441180
vt 0.291030 0.433539
vt 0.646600 0.932088
vt 0.624160 0.383118
vt 0.634244 0.689052
vt 0.653513 0.924218
vt 0.670646 0.696275
vt 0.735755 0.921269
vt 0.609751 0.294768
vt 0.062849 0.456114
vt 0.858352 0.765817
vt 0.652158 0.464083
vt 0.593062 0.472404
vt 0.554079 0.429630
vt 0.764066 0.776464
vt 0.801412 0.917046
vt 0.403846 0.419781
vt 0.722145 0.550388
vt 0.719538 0.445662
vt 0.938163 0.770960
vt 0.146322 0.395684
vt 0.742372 0.679438
vt 0.298468 0.410189
vt 0.788968 0.763722
vt 0.736260 0.929197
vt 0.811854 0.923623
vt 0.855511 0.773044
vt 0.057392 0.388011
vt 0.772747 0.776637
vt 0.156723 0.406827
vt 0.297946 0.417620
vt 0.397508 0.425947
vt 0.749674 0.677908
vt 0.726596 0.537478
vt 0.727310 0.436143
vt 0.595495 0.218087
vt 0.651418 0.456238
vt 0.584423 0.466340
vt 0.602087 0.292689
vt 0.535937 0.437518
vt 0.626594 0.687904
vt 0.014884 0.630568
vt 0.051347 0.545347
vt 0.795134 0.603087
vt 0.053508 0.379950
vt 0.933098 0.778361
vt 0.786566 0.755684
vt 0.066301 0.448450
vt 0.969916 0.501381
vt 0.055902 0.327621
vt 0.960997 0.630607
vt 0.603546 0.216216
vt 0.548656 0.435835
vt 0.547074 0.309895
vt 0.533223 0.674688
vt 0.537025 0.445561
vt 0.781831 0.381743
vt 0.616486 0.380464
vt 0.520074 0.949338
vt 0.445405 0.100587
vt 0.346179 0.123966
vt 0.147363 0.098384
vt 0.958124 0.390976
vt 0.000000 0.000000
vt 0.960223 0.220233
vt 0.614474 0.899201
vt 0.900609 0.393672
vt 0.838107 0.398945
vt 0.919289 0.207048
vt 0.958030 0.289427
vt 0.571725 0.765079
vt 0.936527 0.359133
vt 0.000000 0.787287
vt 0.775340 0.422041
vt 0.245294 0.691859
vn -0.037962 0.155752 -0.987067
vn -0.037962 0.155752 -0.987067
vn -0.037962 0.155752 -0.987067
vn -0.037962 0.155752 -0.987067
vn -0.171981 0.228493 -0.958235
vn -0.171981 0.228493 -0.958235
vn -0.171981 0.228493 -0.958235
vn -0.171981 0.228493 -0.958235
vn -0.922424 0.362228 -0.133883
vn -0.922424 0.362228 -0.133883
vn -0.922424 0.362228 -0.133883
vn -0.922424 0.362228 -0.133883
vn 0.087266 0.133161 -0.987245
vn 0.087266 0.133162 -0.987245
vn 0.087266 0.133161 -0.987245
vn 0.087266 0.133161 -0.987245
vn 0.008007 -0.247907 -0.968751
vn 0.008007 -0.247907 -0.968751
vn 0.008007 -0.247907 -0.968751
vn 0.008007 -0.247907 -0.968751
vn 0.077969 -0.026354 -0.996607
vn 0.077969 -0.026354 -0.996607
vn 0.077969 -0.026354 -0.996607
vn 0.077969 -0.026354 -0.996607
vn 0.082890 0.001621 -0.996557
vn 0.082890 0.001621 -0.996557
vn 0.082890 0.001621 -0.996557
vn 0.082890 0.001621 -0.996557
vn 0.937910 -0.097703 -0.332835
vn 0.937910 -0.097703 -0.332835
vn 0.937910 -0.097703 -0.332835
vn 0.937910 -0.097703 -0.332835
vn 0.211793 -0.017576 -0.977157
vn 0.198993 -0.017080 -0.979852
vn 0.163217 -0.015685 -0.986466
vn -0.970049 0.234964 0.061613
vn -0.970049 0.234964 0.061613
vn -0.970049 0.234964 0.061613
vn -0.970049 0.234964 0.061613
vn -0.940292 0.283589 -0.188222
vn -0.940292 0.283589 -0.188222
vn -0.940292 0.283589 -0.188222
vn -0.940292 0.283589 -0.188222
vn -0.952462 0.275979 0.129040
vn -0.952462 0.275979 0.129040
vn -0.952462 0.275979 0.129040
vn -0.952462 0.275979 0.129040
vn 0.244932 -0.830705 -0.499937
vn 0.244932 -0.830705 -0.499937
vn 0.244932 -0.830705 -0.499937
vn 0.244932 -0.830705 -0.499937
vn -0.132669 -0.797842 -0.588088
vn -0.132669 -0.797842 -0.588088
vn -0.132669 -0.797842 -0.588088
vn -0.132669 -0.797842 -0.588088
vn -0.013974 -0.972284 -0.233386
vn -0.013974 -0.972284 -0.233386
vn -0.013974 -0.972284 -0.233386
vn -0.013974 -0.972284 -0.233386
vn 0.988296 -0.119222 -0.095170
vn 0.988296 -0.119222 -0.095170
vn 0.988296 -0.119222 -0.095170
vn 0.988296 -0.119222 -0.095170
vn 0.971261 -0.110057 -0.211043
vn 0.971261 -0.110057 -0.211043
vn 0.971261 -0.110057 -0.211043
vn 0.971261 -0.110057 -0.211043
vn 0.941710 -0.141920 -0.305025
vn 0.941710 -0.141920 -0.305025
vn 0.941710 -0.141920 -0.305025
vn 0.941710 -0.141920 -0.305025
vn 0.998049 0.048931 -0.038781
vn 0.998049 0.048931 -0.038781
vn 0.998049 0.048931 -0.038781
vn 0.998049 0.048931 -0.038781
vn 0.990128 0.092666 0.105164
vn 0.990128 0.092666 0.105164
vn 0.990128 0.092666 0.105164
vn 0.990128 0.092666 0.105164
vn 0.994142 0.029217 -0.104063
vn 0.994141 0.029217 -0.104063
vn 0.994142 0.029217 -0.104063
vn 0.994141 0.029217 -0.104063
vn -0.984127 0.176783 0.015540
vn -0.984127 0.176783 0.015540
vn -0.984127 0.176783 0.015540
vn -0.984127 0.176783 0.015540
vn -0.981543 0.179390 0.066275
vn -0.981543 0.179390 0.066275
vn -0.981543 0.179390 0.066275
vn -0.981543 0.179390 0.066275
vn 0.076721 0.025626 0.996723
vn 0.076721 0.025626 0.996723
vn 0.076721 0.025626 0.996723
vn 0.259509 -0.947003 -0.189315
vn 0.259509 -0.947003 -0.189315
vn 0.259509 -0.947003 -0.189315
vn 0.259509 -0.947003 -0.189315
vn 0.196281 -0.932700 -0.302563
vn 0.196281 -0.932700 -0.302563
vn 0.196281 -0.932700 -0.302563
vn 0.196281 -0.932700 -0.302563
vn -0.916152 0.389540 0.094464
vn -0.916152 0.389540 0.094464
vn -0.916152 0.389540 0.094464
vn -0.916152 0.389540 0.094464
vn -0.148358 -0.916498 -0.371511
vn -0.148358 -0.916498 -0.371511
vn -0.148358 -0.916499 -0.371511
vn -0.148358 -0.916499 -0.371511
vn -0.168043 -0.980971 -0.097250
vn -0.168043 -0.980971 -0.097250
vn -0.168043 -0.980971 -0.097250
vn -0.168043 -0.980971 -0.097250
vn -0.266465 -0.946284 -0.183150
vn -0.266465 -0.946284 -0.183150
vn -0.266465 -0.946284 -0.183150
vn -0.266465 -0.946284 -0.183150
vn 0.203490 0.021929 0.978831
vn 0.203490 0.021929 0.978831
vn 0.203490 0.021929 0.978831
vn -0.009586 -0.170319 0.985342
vn -0.009586 -0.170319 0.985342
vn -0.009586 -0.170319 0.985342
vn -0.009586 -0.170319 0.985342
vn 0.059073 0.025431 0.997930
vn 0.059073 0.025431 0.997930
vn 0.059073 0.025431 0.997930
vn 0.059073 0.025431 0.997930
vn -0.083423 -0.039053 0.995749
vn -0.083423 -0.039053 0.995749
vn -0.083423 -0.039053 0.995749
vn -0.083423 -0.039053 0.995749
vn -0.043153 0.072013 0.996470
vn -0.043153 0.072013 0.996470
vn -0.043153 0.072013 0.996470
vn -0.043153 0.072013 0.996470
vn -0.004587 0.071036 0.997463
vn -0.004587 0.071036 0.997463
vn -0.004587 0.071036 0.997463
vn -0.004587 0.071036 0.997463
vn -0.154657 -0.168972 0.973411
vn -0.154657 -0.168972 0.973411
vn -0.154657 -0.168972 0.973411
vn -0.154657 -0.168972 0.973411
vn -0.086535 0.119193 0.989093
vn -0.086535 0.119193 0.989093
vn -0.086535 0.119193 0.989093
vn -0.086535 0.119193 0.989093
vn -0.067110 0.169084 0.983314
vn -0.067110 0.169084 0.983314
vn -0.067110 0.169084 0.983314
vn -0.067110 0.169084 0.983314
vn -0.156274 -0.191126 0.969046
vn -0.156274 -0.191126 0.969046
vn -0.156274 -0.191126 0.969046
vn -0.156274 -0.191126 0.969046
vn 0.135168 -0.832973 0.536550
vn 0.135168 -0.832973 0.536550
vn 0.135168 -0.832973 0.536550
vn 0.135168 -0.832973 0.536550
vn -0.049268 -0.002531 0.998782
vn -0.049268 -0.002531 0.998782
vn -0.049268 -0.002531 0.998782
vn -0.049268 -0.002531 0.998782
vn -0.254415 -0.912346 0.320777
vn -0.254415 -0.912346 0.320777
vn -0.254415 -0.912346 0.320777
vn -0.254415 -0.912346 0.320777
vn -0.213337 -0.848765 0.483824
vn -0.213337 -0.848765 0.483824
vn -0.213337 -0.848765 0.483824
vn -0.213337 -0.848765 0.483824
vn -0.013558 -0.364224 0.931213
vn -0.013558 -0.364224 0.931213
vn -0.013558 -0.364224 0.931213
vn -0.013558 -0.364224 0.931213
vn -0.008744 0.473527 -0.880736
vn -0.008744 0.473527 -0.880736
vn -0.008744 0.473527 -0.880736
vn -0.008744 0.473527 -0.880736
vn 0.010755 0.909964 -0.414548
vn 0.010755 0.909964 -0.414548
vn 0.010755 0.909964 -0.414548
vn 0.010755 0.909964 -0.414548
vn 0.020655 0.151386 -0.988259
vn 0.020655 0.151386 -0.988259
vn 0.020655 0.151386 -0.988259
vn 0.020655 0.151386 -0.988259
vn 0.022150 0.998387 -0.052278
vn 0.022150 0.998387 -0.052278
vn 0.022150 0.998387 -0.052278
vn 0.022150 0.998387 -0.052277
vn 0.990525 0.001369 -0.137322
vn 0.990525 0.001369 -0.137322
vn 0.990525 0.001369 -0.137322
vn 0.990525 0.001369 -0.137322
vn 0.032976 0.161530 -0.986317
vn 0.032976 0.161530 -0.986317
vn 0.032976 0.161530 -0.986317
vn 0.032976 0.161530 -0.986317
vn -0.972479 0.207190 -0.106569
vn -0.972479 0.207190 -0.106569
vn -0.972479 0.207190 -0.106569
vn -0.972479 0.207190 -0.106569
vn -0.030451 0.998371 -0.048242
vn -0.030451 0.998371 -0.048242
vn -0.030451 0.998371 -0.048242
vn -0.030451 0.998371 -0.048242
vn 0.998417 -0.031761 -0.046411
vn 0.998417 -0.031761 -0.046411
vn 0.998417 -0.031761 -0.046411
vn 0.998417 -0.031761 -0.046411
vn 0.011912 0.999593 0.025909
vn 0.011912 0.999593 0.025910
vn 0.011912 0.999593 0.025910
vn 0.011912 0.999593 0.025910
vn -0.120347 0.138255 0.983058
vn -0.120347 0.138255 0.983058
vn -0.120347 0.138255 0.983058
vn -0.046361 0.997153 -0.059468
vn -0.046361 0.997153 -0.059468
vn -0.046361 0.997153 -0.059468
vn -0.046361 0.997153 -0.059468
vn -0.979464 0.186166 -0.077411
vn -0.979464 0.186166 -0.077411
vn -0.979464 0.186166 -0.077411
vn -0.979464 0.186166 -0.077411
vn 0.150357 0.071606 0.986035
vn 0.150357 0.071606 0.986035
vn 0.150357 0.071606 0.986035
vn 0.150357 0.071606 0.986035
vn 0.015465 0.999490 0.027946
vn 0.015465 0.999490 0.027946
vn 0.015465 0.999490 0.027946
vn 0.015465 0.999490 0.027946
vn -0.075052 0.255995 0.963760
vn -0.075052 0.255995 0.963760
vn -0.075052 0.255995 0.963760
vn -0.075052 0.255995 0.963760
vn -0.072964 0.224682 0.971697
vn -0.072964 0.224682 0.971697
vn -0.072964 0.224682 0.971697
vn -0.072964 0.224682 0.971697
vn -0.001812 0.921837 -0.387574
vn -0.001812 0.921837 -0.387574
vn -0.001812 0.921837 -0.387574
vn -0.001812 0.921837 -0.387574
vn 0.052014 0.456216 -0.888348
vn 0.052014 0.456216 -0.888348
vn 0.052014 0.456216 -0.888348
vn 0.052014 0.456216 -0.888348
vn 0.948181 0.304809 -0.089691
vn 0.948181 0.304809 -0.089691
vn 0.948181 0.304809 -0.089691
vn 0.948181 0.304809 -0.089691
vn 0.387665 0.919136 -0.070043
vn 0.387665 0.919136 -0.070043
vn 0.387665 0.919136 -0.070043
vn 0.387665 0.919136 -0.070043
vn 0.866747 0.497965 -0.027922
vn 0.866747 0.497965 -0.027922
vn 0.866747 0.497965 -0.027922
vn 0.866747 0.497965 -0.027922
vn 0.406296 0.913623 0.014728
vn 0.406296 0.913623 0.014728
vn 0.406296 0.913623 0.014728
vn 0.406296 0.913623 0.014728
vn -0.373268 0.926105 -0.054774
vn -0.373268 0.926105 -0.054774
vn -0.373268 0.926105 -0.054774
vn -0.373268 0.926105 -0.054774
vn -0.886889 0.459532 -0.047523
vn -0.886889 0.459532 -0.047523
vn -0.886889 0.459532 -0.047523
vn -0.886889 0.459532 -0.047523
vn -0.394242 0.916860 -0.062781
vn -0.394242 0.916860 -0.062781
vn -0.394242 0.916860 -0.062781
vn -0.394242 0.916860 -0.062781
vn -0.880503 0.450901 -0.146300
vn -0.880503 0.450901 -0.146300
vn -0.880503 0.450901 -0.146300
vn -0.880503 0.450901 -0.146300
vn -0.122755 0.306106 0.944050
vn -0.122755 0.306106 0.944050
vn -0.122755 0.306106 0.944050
vn -0.122755 0.306106 0.944050
vn -0.030876 0.938826 0.343006
vn -0.030876 0.938826 0.343006
vn -0.030876 0.938826 0.343006
vn -0.030876 0.938826 0.343006
vn -0.032186 0.916057 0.399755
vn -0.032186 0.916057 0.399755
vn -0.032186 0.916057 0.399755
vn -0.032186 0.916057 0.399755
vn 0.102198 0.284084 0.953337
vn 0.102198 0.284084 0.953337
vn 0.102198 0.284084 0.953337
vn 0.102198 0.284084 0.953337
vn -0.004273 0.897947 0.440084
vn -0.004273 0.897947 0.440084
vn -0.004273 0.897947 0.440083
vn -0.004273 0.897947 0.440083
vn -0.050673 0.430240 0.901291
vn -0.050673 0.430240 0.901291
vn -0.050673 0.430240 0.901291
vn -0.050673 0.430240 0.901291
vn -0.098893 0.568521 0.816703
vn -0.098893 0.568521 0.816703
vn -0.098893 0.568521 0.816703
vn -0.098893 0.568521 0.816703
vn -0.028761 0.951972 0.304832
vn -0.028761 0.951972 0.304832
vn -0.028761 0.951972 0.304832
vn -0.028761 0.951972 0.304832
vn -0.984741 0.131391 0.114113
vn -0.984741 0.131391 0.114113
vn -0.984741 0.131391 0.114113
vn 0.982886 -0.155963 0.098031
vn 0.982886 -0.155963 0.098031
vn 0.982886 -0.155963 0.098031
vn 0.172330 -0.400353 0.900011
vn 0.172330 -0.400353 0.900011
vn 0.172330 -0.400353 0.900011
vn 0.988577 -0.041555 -0.144877
s off
g stalactite_flat
usemtl initialShadingGroup
f 14/94/1 1/2/2 15/3/3 17/4/4
f 15/3/5 5/124/6 16/93/7 17/4/8
f 16/6/9 4/7/10 14/1/11 17/95/12
f 15/3/13 1/2/14 18/8/15 20/9/16
f 18/8/17 6/10/18 19/126/19 20/9/20
f 19/126/21 5/124/22 15/3/23 20/9/24
f 18/8/25 1/2/26 13/12/27 22/106/28
f 13/108/29 2/14/30 21/15/31 22/13/32
s 1
f 22/106/33 6/10/34 18/8/35
s off
f 26/16/36 4/7/37 16/6/38 27/17/39
f 16/6/40 5/125/41 25/119/42 27/17/43
f 25/119/44 10/100/45 26/16/46 27/17/47
f 29/20/48 5/5/49 19/11/50 30/21/51
f 19/11/52 6/122/53 28/22/54 30/21/55
f 28/22/56 11/23/57 29/20/58 30/21/59
f 32/121/60 6/123/61 21/15/62 33/25/63
f 21/15/64 2/14/65 31/26/66 33/25/67
f 31/26/68 7/116/69 32/121/70 33/25/71
f 31/26/72 2/14/73 23/28/74 35/29/75
f 23/28/76 8/30/77 34/120/78 35/29/79
f 34/120/80 7/116/81 31/26/82 35/29/83
f 24/32/84 4/7/85 26/16/86 38/33/87
f 26/16/88 10/100/89 37/102/90 38/33/91
f 37/34/92 9/35/93 24/101/94
f 25/18/95 5/5/96 29/20/97 40/36/98
f 29/20/99 11/23/100 39/37/101 40/36/102
f 39/114/103 10/100/104 25/119/105 40/118/106
f 28/22/107 6/122/108 32/24/109 42/38/110
f 32/24/111 7/117/112 41/39/113 42/38/114
f 41/39/115 11/23/116 28/22/117 42/38/118
f 44/40/119 34/31/120 45/41/121
f 34/31/122 8/105/123 43/42/124 45/41/125
f 43/42/126 12/43/127 44/40/128 45/41/129
f 43/42/130 8/105/131 36/44/132 47/45/133
f 36/44/134 9/35/135 46/46/136 47/45/137
f 46/46/138 12/43/139 43/42/140 47/45/141
f 46/46/142 9/35/143 37/34/144 49/47/145
f 37/34/146 10/19/147 48/48/148 49/47/149
f 48/48/150 12/43/151 46/46/152 49/47/153
f 48/48/154 10/19/155 39/115/156 51/113/157
f 39/37/158 11/23/159 50/50/160 51/49/161
f 50/112/162 12/43/163 48/48/164 51/113/165
f 50/50/166 11/23/167 41/39/168 52/51/169
f 41/39/170 7/117/171 44/110/172 52/51/173
f 44/40/174 12/43/175 50/112/176 52/111/177
f 55/52/178 54/53/179 57/91/180 56/107/181
f 54/92/182 53/56/183 58/57/184 57/54/185
f 13/12/186 1/2/187 55/52/188 56/107/189
f 53/56/190 3/58/191 61/59/192 58/57/193
f 59/60/194 2/14/195 13/108/196 56/55/197
f 55/52/198 1/2/199 14/94/200 64/61/201
f 14/1/202 4/7/203 67/62/204 64/98/205
f 65/63/206 3/58/207 53/56/208 62/64/209
f 23/28/210 2/14/211 59/60/212 68/103/213
f 61/59/214 3/58/215 73/66/216 70/67/217
f 71/68/218 8/105/219 68/65/220
f 77/69/221 3/58/222 65/63/223 74/70/224
f 67/62/225 4/7/226 24/32/227 76/71/228
f 24/101/229 9/35/230 79/72/231 76/96/232
f 73/66/233 3/58/234 77/69/235 80/73/236
f 79/72/237 9/35/238 36/44/239 82/74/240
f 36/44/241 8/105/242 71/68/243 82/74/244
f 53/56/245 54/92/246 63/89/247 62/64/248
f 54/53/249 55/52/250 64/61/251 63/99/252
f 56/55/253 57/109/254 60/90/255 59/60/256
f 57/54/257 58/57/258 61/59/259 60/76/260
f 59/60/261 60/90/262 69/87/263 68/103/264
f 60/76/265 61/59/266 70/67/267 69/77/268
f 62/64/269 63/89/270 66/88/271 65/63/272
f 63/75/273 64/98/274 67/62/275 66/78/276
f 65/63/277 66/88/278 75/86/279 74/70/280
f 66/78/281 67/62/282 76/71/283 75/97/284
f 68/65/285 69/104/286 72/83/287 71/68/288
f 69/77/289 70/67/290 73/66/291 72/80/292
f 74/70/293 75/86/294 78/85/295 77/69/296
f 75/79/297 76/96/298 79/72/299 78/81/300
f 77/69/301 78/85/302 81/84/303 80/73/304
f 78/81/305 79/72/306 82/74/307 81/82/308
f 71/68/309 72/83/310 81/82/311 82/74/312
f 72/80/313 73/66/314 80/73/315 81/84/316
f 37/102/317 24/32/318 38/33/319
f 68/103/320 8/30/321 23/28/322
f 44/40/323 7/27/324 34/31/325
s 1
f 21/15/326 6/123/34 22/13/33
