# This file uses centimeters as units for non-parametric coordinates.

mtllib babyZombie.mtl
g default
v -0.198480 0.403479 0.103346
v 0.001474 0.403479 0.103346
v -0.198480 0.603432 0.103346
v 0.001474 0.603432 0.103346
v -0.198480 0.603432 -0.096608
v 0.001474 0.603432 -0.096608
v -0.198480 0.403479 -0.096608
v 0.001474 0.403479 -0.096608
v -0.126913 0.002540 -0.002951
v -0.056754 0.002540 -0.002951
v -0.126913 0.202951 -0.002951
v -0.056754 0.202951 -0.002951
v -0.056754 0.002540 -0.079749
v -0.056754 0.202951 -0.079749
v -0.126913 0.202951 -0.079749
v -0.126913 0.002540 -0.079749
v -0.126913 0.202951 0.073847
v -0.056754 0.202951 0.073847
v -0.126913 0.403362 0.073847
v -0.056754 0.403362 0.073847
v -0.126913 0.403362 -0.079749
v -0.056754 0.403362 -0.079749
v -0.126913 0.202951 -0.079749
v -0.056754 0.202951 -0.079749
v -0.126913 0.002540 0.073847
v -0.056754 0.002540 0.073847
v -0.126913 0.202951 0.073847
v -0.056754 0.202951 0.073847
v -0.056754 0.002540 -0.002951
v -0.056754 0.202951 -0.002951
v -0.126913 0.202951 -0.002951
v -0.126913 0.002540 -0.002951
vt 0.153791 0.000002
vt 0.307583 0.000002
vt 0.307583 0.153793
vt 0.153791 0.153793
vt 0.307583 0.307585
vt 0.153791 0.307585
vt 0.307583 0.461376
vt 0.153791 0.461376
vt 0.307583 0.615168
vt 0.153791 0.615168
vt 0.461374 0.000002
vt 0.461374 0.153793
vt 0.000000 0.000002
vt 0.000000 0.153793
vt 0.873065 0.247209
vt 0.933401 0.246985
vt 0.933478 0.419323
vt 0.873211 0.419340
vt 0.999453 0.186728
vt 0.999411 0.247018
vt 0.933449 0.186685
vt 0.933491 0.485329
vt 0.873205 0.485336
vt 0.807195 0.419356
vt 0.807080 0.247202
vt 0.999465 0.419327
vt 0.637857 0.120591
vt 0.465623 0.120591
vt 0.465623 0.060296
vt 0.637857 0.060296
vt 0.442417 0.153794
vt 0.502712 0.153794
vt 0.502711 0.326028
vt 0.442416 0.326028
vt 0.502710 0.458029
vt 0.442416 0.458029
vt 0.502710 0.630263
vt 0.442415 0.630262
vt 0.310415 0.326027
vt 0.310416 0.153793
vt 0.634712 0.326028
vt 0.634713 0.153795
vt 0.868686 0.485373
vt 0.928981 0.485333
vt 0.929095 0.657567
vt 0.868800 0.657607
vt 0.802686 0.485417
vt 0.802646 0.425123
vt 0.868646 0.425079
vt 0.929138 0.723568
vt 0.868844 0.723608
vt 0.802800 0.657651
vt 0.995095 0.657523
vt 0.994981 0.485290
vt 0.637857 0.060296
vt 0.465623 0.060296
vt 0.465623 0.000002
vt 0.637857 0.000002
vn 0.000000 0.000000 1.000000
vn 0.000000 0.000000 1.000000
vn 0.000000 0.000000 1.000000
vn 0.000000 0.000000 1.000000
vn 0.000000 1.000000 0.000000
vn 0.000000 1.000000 0.000000
vn 0.000000 1.000000 0.000000
vn 0.000000 1.000000 0.000000
vn 0.000000 0.000000 -1.000000
vn 0.000000 0.000000 -1.000000
vn 0.000000 0.000000 -1.000000
vn 0.000000 0.000000 -1.000000
vn 0.000000 -1.000000 0.000000
vn 0.000000 -1.000000 0.000000
vn 0.000000 -1.000000 0.000000
vn 0.000000 -1.000000 0.000000
vn 1.000000 0.000000 0.000000
vn 1.000000 0.000000 0.000000
vn 1.000000 0.000000 0.000000
vn 1.000000 0.000000 0.000000
vn -1.000000 0.000000 0.000000
vn -1.000000 0.000000 0.000000
vn -1.000000 0.000000 0.000000
vn -1.000000 0.000000 0.000000
vn 0.000000 0.000000 1.000000
vn 0.000000 0.000000 1.000000
vn 0.000000 0.000000 1.000000
vn 0.000000 0.000000 1.000000
vn 0.000000 -1.000000 0.000000
vn 0.000000 -1.000000 0.000000
vn 0.000000 -1.000000 0.000000
vn 0.000000 -1.000000 0.000000
vn 0.000000 1.000000 0.000000
vn 0.000000 1.000000 0.000000
vn 0.000000 1.000000 0.000000
vn 0.000000 1.000000 0.000000
vn -1.000000 0.000000 0.000000
vn -1.000000 0.000000 0.000000
vn -1.000000 0.000000 0.000000
vn -1.000000 0.000000 0.000000
vn 1.000000 0.000000 0.000000
vn 1.000000 0.000000 0.000000
vn 1.000000 0.000000 0.000000
vn 1.000000 0.000000 0.000000
vn 0.000000 0.000000 -1.000000
vn 0.000000 0.000000 -1.000000
vn 0.000000 0.000000 -1.000000
vn 0.000000 0.000000 -1.000000
vn 0.000000 0.000000 1.000000
vn 0.000000 0.000000 1.000000
vn 0.000000 0.000000 1.000000
vn 0.000000 0.000000 1.000000
vn 0.000000 1.000000 0.000000
vn 0.000000 1.000000 0.000000
vn 0.000000 1.000000 0.000000
vn 0.000000 1.000000 0.000000
vn 0.000000 0.000000 -1.000000
vn 0.000000 0.000000 -1.000000
vn 0.000000 0.000000 -1.000000
vn 0.000000 0.000000 -1.000000
vn -1.000000 0.000000 0.000000
vn -1.000000 0.000000 0.000000
vn -1.000000 0.000000 0.000000
vn -1.000000 0.000000 0.000000
vn 1.000000 0.000000 0.000000
vn 1.000000 0.000000 0.000000
vn 1.000000 0.000000 0.000000
vn 1.000000 0.000000 0.000000
vn 0.000000 0.000000 1.000000
vn 0.000000 0.000000 1.000000
vn 0.000000 0.000000 1.000000
vn 0.000000 0.000000 1.000000
vn 0.000000 -1.000000 0.000000
vn 0.000000 -1.000000 0.000000
vn 0.000000 -1.000000 0.000000
vn 0.000000 -1.000000 0.000000
vn 0.000000 1.000000 0.000000
vn 0.000000 1.000000 0.000000
vn 0.000000 1.000000 0.000000
vn 0.000000 1.000000 0.000000
vn -1.000000 0.000000 0.000000
vn -1.000000 0.000000 0.000000
vn -1.000000 0.000000 0.000000
vn -1.000000 0.000000 0.000000
vn 1.000000 0.000000 0.000000
vn 1.000000 0.000000 0.000000
vn 1.000000 0.000000 0.000000
vn 1.000000 0.000000 0.000000
vn 0.000000 0.000000 -1.000000
vn 0.000000 0.000000 -1.000000
vn 0.000000 0.000000 -1.000000
vn 0.000000 0.000000 -1.000000
s off
g body babyZombie
usemtl lambert4SG
f 1/1/1 2/2/2 4/3/3 3/4/4
f 3/4/5 4/3/6 6/5/7 5/6/8
f 5/6/9 6/5/10 8/7/11 7/8/12
f 7/8/13 8/7/14 2/9/15 1/10/16
f 2/2/17 8/11/18 6/12/19 4/3/20
f 7/13/21 1/1/22 3/4/23 5/14/24
f 9/15/25 10/16/26 12/17/27 11/18/28
f 16/19/29 13/20/30 10/16/31 9/21/32
f 14/22/33 15/23/34 11/18/35 12/17/36
f 15/24/37 16/25/38 9/15/39 11/18/40
f 14/26/41 12/17/42 10/16/43 13/20/44
f 14/27/45 13/28/46 16/29/47 15/30/48
f 17/31/49 18/32/50 20/33/51 19/34/52
f 22/35/53 21/36/54 19/34/55 20/33/56
f 21/36/57 22/35/58 24/37/59 23/38/60
f 21/39/61 23/40/62 17/31/63 19/34/64
f 22/41/65 20/33/66 18/32/67 24/42/68
f 25/43/69 26/44/70 28/45/71 27/46/72
f 32/47/73 29/48/74 26/49/75 25/43/76
f 30/50/77 31/51/78 27/46/79 28/45/80
f 31/52/81 32/47/82 25/43/83 27/46/84
f 30/53/85 28/45/86 26/44/87 29/54/88
f 30/55/89 29/56/90 32/57/91 31/58/92
g default
v 0.147215 0.475371 -0.193042
v 0.173704 0.414968 -0.193575
v -0.115606 0.346542 -0.150485
v -0.072529 0.294810 -0.154837
v -0.100857 0.351346 -0.074513
v -0.057791 0.299680 -0.079749
v 0.161954 0.480241 -0.117955
v 0.188443 0.419838 -0.118488
vt 0.706178 0.002195
vt 0.771640 0.006361
vt 0.770088 0.248400
vt 0.704653 0.252163
vt 0.770302 0.318227
vt 0.704149 0.315000
vt 0.773034 0.560443
vt 0.708174 0.563205
vt 0.773460 0.627351
vt 0.707838 0.628302
vt 0.837969 0.004788
vt 0.835504 0.246283
vt 0.639800 -0.000000
vt 0.638569 0.250514
vn -0.137426 -0.042146 -0.989615
vn -0.137426 -0.042146 -0.989615
vn -0.137426 -0.042146 -0.989615
vn -0.137426 -0.042146 -0.989615
vn -0.746231 -0.639003 0.186586
vn -0.746231 -0.639003 0.186586
vn -0.746231 -0.639003 0.186586
vn -0.746231 -0.639003 0.186586
vn 0.141615 0.036967 0.989231
vn 0.141615 0.036967 0.989231
vn 0.141615 0.036967 0.989231
vn 0.141615 0.036967 0.989231
vn 0.896358 0.394867 -0.201551
vn 0.896358 0.394867 -0.201551
vn 0.896358 0.394867 -0.201551
vn 0.896358 0.394867 -0.201551
vn 0.434958 -0.900046 -0.027007
vn 0.434958 -0.900046 -0.027007
vn 0.434958 -0.900046 -0.027007
vn 0.434958 -0.900046 -0.027007
vn -0.436428 0.899316 0.027605
vn -0.436428 0.899316 0.027605
vn -0.436428 0.899316 0.027605
vn -0.436428 0.899316 0.027605
s off
g babyZombie hand2
usemtl lambert4SG
f 33/59/93 34/60/94 36/61/95 35/62/96
f 35/62/97 36/61/98 38/63/99 37/64/100
f 37/64/101 38/63/102 40/65/103 39/66/104
f 39/66/105 40/65/106 34/67/107 33/68/108
f 34/60/109 40/69/110 38/70/111 36/61/112
f 39/71/113 33/59/114 35/62/115 37/72/116
g default
v 0.162310 0.419350 0.185955
v 0.134007 0.477619 0.185092
v -0.079066 0.275027 0.149392
v -0.107369 0.333296 0.148529
v -0.062633 0.280650 0.073823
v -0.090936 0.338919 0.073847
v 0.178742 0.424973 0.111273
v 0.150439 0.483242 0.110410
vt 0.572225 0.385543
vt 0.638817 0.379031
vt 0.635280 0.623413
vt 0.570980 0.628207
vt 0.637224 0.693053
vt 0.571458 0.691163
vt 0.661645 0.935197
vt 0.595755 0.932759
vt 0.663064 0.999883
vt 0.597125 1.000000
vt 0.704853 0.374963
vt 0.700741 0.619282
vt 0.505534 0.383590
vt 0.505820 0.626363
vn -0.123176 -0.045147 0.991357
vn -0.123177 -0.045147 0.991357
vn -0.123177 -0.045147 0.991357
vn -0.123176 -0.045147 0.991357
vn -0.876093 -0.427159 -0.223601
vn -0.876093 -0.427159 -0.223601
vn -0.876093 -0.427159 -0.223601
vn -0.876093 -0.427159 -0.223601
vn 0.121084 0.051678 -0.991296
vn 0.121084 0.051678 -0.991296
vn 0.121084 0.051678 -0.991296
vn 0.121084 0.051678 -0.991296
vn 0.875161 0.428426 0.224819
vn 0.875161 0.428426 0.224819
vn 0.875161 0.428426 0.224819
vn 0.875161 0.428426 0.224819
vn -0.507379 0.860448 -0.046859
vn -0.507380 0.860448 -0.046859
vn -0.507379 0.860448 -0.046859
vn -0.507380 0.860448 -0.046859
vn 0.507355 -0.860478 0.046575
vn 0.507355 -0.860478 0.046575
vn 0.507355 -0.860478 0.046575
vn 0.507355 -0.860478 0.046575
s off
g babyZombie hand1
usemtl lambert4SG
f 41/73/117 42/74/118 44/75/119 43/76/120
f 43/76/121 44/75/122 46/77/123 45/78/124
f 45/78/125 46/77/126 48/79/127 47/80/128
f 47/80/129 48/79/130 42/81/131 41/82/132
f 42/74/133 48/83/134 46/84/135 44/75/136
f 47/85/137 41/73/138 43/76/139 45/86/140
